/* XPM */
static char *_dc9399a0ae84058c465ecc24ee1da47mDvLaoiAalcfJFLr[] = {
/* columns rows colors chars-per-pixel */
"32 32 198 2 ",
"   c #2A0B06",
".  c #2C0D09",
"X  c #300E07",
"o  c #330D0A",
"O  c #2F110A",
"+  c #33130E",
"@  c #39140C",
"#  c #2D0C11",
"$  c #3B1A13",
"%  c #370D23",
"&  c #540F0A",
"*  c #41150E",
"=  c #4A1A0F",
"-  c #431711",
";  c #461A13",
":  c #4B1A14",
">  c #4A1C17",
",  c #541E17",
"<  c #4C231D",
"1  c #55231C",
"2  c #5F261B",
"3  c #513E12",
"4  c #79291C",
"5  c #492724",
"6  c #532A25",
"7  c #5C2B26",
"8  c #5B2D2A",
"9  c #4D302F",
"0  c #5A3429",
"q  c #5C2D37",
"w  c #563231",
"e  c #5B3233",
"r  c #5D3B3D",
"t  c #622C24",
"y  c #642E29",
"u  c #6C3526",
"i  c #63322E",
"p  c #633435",
"a  c #633A3E",
"s  c #683839",
"d  c #733B34",
"f  c #723F3E",
"g  c #5A7818",
"h  c #74700D",
"j  c #7E4B2B",
"k  c #644339",
"l  c #74413A",
"z  c #5D3843",
"x  c #633D45",
"c  c #693E44",
"v  c #611E76",
"b  c #6C2C7B",
"n  c #7B237A",
"m  c #684347",
"M  c #6C454C",
"N  c #764644",
"B  c #72464C",
"V  c #74484B",
"C  c #7A4C4C",
"Z  c #76504F",
"A  c #6D4650",
"S  c #6E4A52",
"D  c #734B55",
"F  c #784D53",
"G  c #7C4E5A",
"H  c #6D5352",
"J  c #7D5255",
"K  c #75505C",
"L  c #7C535C",
"P  c #776453",
"I  c #7A5561",
"U  c #745E60",
"Y  c #754871",
"T  c #756063",
"R  c #93160E",
"E  c #882D10",
"W  c #AD261D",
"Q  c #C03B2E",
"!  c #BB7812",
"~  c #8A4826",
"^  c #9A5325",
"/  c #97542A",
"(  c #9A5D32",
")  c #A15829",
"_  c #9E6332",
"`  c #9D7B3B",
"'  c #A66D3C",
"]  c #AA713F",
"[  c #C6771D",
"{  c #8C4846",
"}  c #845554",
"|  c #82565E",
" . c #865B5D",
".. c #8B5B5B",
"X. c #A04A46",
"o. c #BC5241",
"O. c #88655C",
"+. c #97635D",
"@. c #8F745F",
"#. c #AA644F",
"$. c #A76B48",
"%. c #A5724B",
"&. c #B47B4A",
"*. c #A77856",
"=. c #845A62",
"-. c #865D65",
";. c #8B6365",
":. c #866569",
">. c #966A66",
",. c #936D6A",
"<. c #8C7469",
"1. c #98726E",
"2. c #906174",
"3. c #887677",
"4. c #9B7672",
"5. c #9A7B76",
"6. c #9F7D79",
"7. c #A47A78",
"8. c #D65548",
"9. c #C56166",
"0. c #C36D70",
"q. c #649125",
"w. c #718F37",
"e. c #7FB063",
"r. c #AF8D3E",
"t. c #C98F1F",
"y. c #C89118",
"u. c #D19E2C",
"i. c #8C9149",
"p. c #AF8541",
"a. c #B2804C",
"s. c #B38355",
"d. c #B98957",
"f. c #BC8A5B",
"g. c #BF905C",
"h. c #87B44B",
"j. c #AE8069",
"k. c #BD8F63",
"l. c #A5827E",
"z. c #91B466",
"x. c #8CBF74",
"c. c #C89842",
"v. c #C49867",
"b. c #C9A073",
"n. c #88CE60",
"m. c #97C678",
"M. c #9FD273",
"N. c #E2D47E",
"B. c #8A3382",
"V. c #974296",
"C. c #9E748C",
"Z. c #B1789F",
"A. c #A069A5",
"S. c #AD6ACF",
"D. c #BD6DD4",
"F. c #AD8E88",
"G. c #B59886",
"H. c #BFB8B6",
"J. c #BFBFBF",
"K. c #D08289",
"L. c #EF9189",
"P. c #EB9290",
"I. c #D0AE80",
"U. c #DBBF93",
"Y. c #D583BC",
"T. c #ADD494",
"R. c #B0E085",
"E. c #E4C59C",
"W. c #CECAB5",
"Q. c #DBCAB7",
"!. c #E8CCA5",
"~. c #ECD5B6",
"^. c #F0D1B2",
"/. c #C68CDF",
"(. c #D79FF0",
"). c #CFADE6",
"_. c #D6A4E7",
"`. c #C5C5C5",
"'. c #C9C6C6",
"]. c #CAC8C6",
"[. c #C6C6C8",
"{. c #C9C7CA",
"}. c #C6C9C8",
"|. c #CACACA",
" X c #D0CECF",
".X c #CFCED1",
"XX c #D0CED0",
"oX c #CFD0D2",
"OX c #D3D3D3",
"+X c #D8D6D7",
"@X c #D7D7D9",
"#X c #D9D7D9",
"$X c #DCDCDC",
"%X c #E0DEDF",
"&X c #DEE0DF",
"*X c #DFDEE0",
"=X c #E0DEE1",
"-X c #E2E2E2",
/* pixels */
"-X-X$X$X-X$X-X$X$X-X$X-X-X$X-X$X$X-X-X$X$X-X-X-X-X-X-X$X$X-X-X-X",
"-X-X$X+X#X$X#X#X#X$X#X+X#X#X#X+X#X+X#X#X+X#X+X#X+X#X#X+X#X$X-X-X",
"-X$X+XOX+XOXOX+X+X+XOXOXOXOXOXOX|.|.+XOX+X+X+XOXOXOXOXOX|.+X+X$X",
"$X#XOXJ.`.`.`.}.`.`.`.`.`.`.`.`.`.`.`.}.`.`.`.J.`.`.`.`.`.|.OX#X",
"-X#XOX`.`.}.}.}.}.}.`.`.}.}.}.}.}.].{.}.}.}.}.`.}.}.}.}.`. XOX$X",
"-X#XOX`.`.}.}.}.}.}.}.}.}.}. X<.u.B.=. .E W.W.{.}.}.}.}.`. X+X%X",
"-X#XOX}.`.`.}.}.}.{.}.}.,.:.c.S.u L K N =.=. ...1.].}.}.`.|.+X%X",
"$X$XOX`.}.}.}.}.}.].5.:.L y.M 9 a m B D 8.L =...i.+.].}.}.|.+X%X",
"-X#XOX`.`.}.}.}.u 3.I L | B m.p 8 ; + a x 9.L  ...Z.+.}.`.OX@X=X",
"$X$XOX}.}.}.}.T.N.K r C C s i & > X.> ! e z m G w.;.>.[ `..X+X*X",
"-X#XOX`.].}.q.).-.L J L C 7 1 1 @ X n v 6 e c D.|  .V.7.}.|.+X*X",
"-X#XOX}.}.H.P.D M J ;. .J 7 : : o . . @ < r A.K R ..+.4.F..X+X*X",
"-X#X+X`.z.s Y A R.J  .>.N i ; @ #     + 5 r x c V =.Q l.Y.XX+X*X",
"$X#XOX}.U.6 D E | P.;.O.d , b . / ~ +   x.S L L _.;.,.l.p.|.+X=X",
"-X$XOX}.3.M n.B L ;.;.>.d , ~ ^ ) ) $.< E r 4 =.M.,.1.6.7.|.+X=X",
"-X#XOX`.H U ` s K K.{ t.d s.) $.}.}.}.T.L K L ;.P C.4.5.>.XX#X$X",
"-X#XOX`.3.T S D D F =.} 3 k.{.}.}.#.h.} K V J ;.2.,.4.6.^..X+X*X",
"$X#XOX`.:.w g h.D K G | L i Z D L V D F M C u } ;.1.5.1.~.|.OX$X",
"-X#X+X}.k *.m f W S 9 K V I I K /.(.0.a J } N l N O.O.~.Q.|.OX$X",
"$X#XOX`.0 o.9 5 e a z m c M N c p e e s r.V L.i.y u !.E.}..X+X=X",
"-X#XOX`.}.e.@ - ; 6 8 5 p q e i 7 7 p y t k l d t E.E.Q.`.|.+X$X",
"%X$XOX}.}.@.O b @ - : > < < 6 6 { ; - o : 1 t 2 U.U.U.`.`.OX#X$X",
"-X#XOX`.}.].+ + X % @ @ Y ; : : = = f.a.+ * *.I.I.I.}.}.}. X+X%X",
"-X#X|.`.`.}.].$ . . . . X h ; ; : d.d.d.g.v.v.v.b.}.}.}.`.OX+X%X",
"$X#XOX`.`.}.].'.9 . . . $ j O @ : ' ] &.&.d.f.].}.}.`.`.].|.OX$X",
"$X$XOX`.}.}.{.].}.G.%.( ( / / O = _ ' $.s.].{.}.}.}.}.}.`.OX+X$X",
"$X#XOX}.{.}.}.}.{.].}.{.G.*.%.%.%.j.].}.}.`.}.}.}.`.}.}.}.XX+X$X",
"$X+XOX`.`.{.}.].[.}.}.{.].}.[.}.`.`.{.{.}.}.}.`.}.}.`.}.}.|.OX$X",
"$X+XOX`.`.{.`.`.`.`.`.{.`.}.`.`.[.[.`.`.`.`.`.`.}.}.`.}.`.OX|.$X",
"-X$X#X|. X X X XXXXX|..X|. XoXoXoX.XOXOXOX|.OXOX XOXOX XOX+X#X-X",
"-X-X#XOX XXXXXOXOXOXOXOXOXOXOXoXoXOXOX XOXOXOXOXOXOXOXOX|.+X#X-X",
"-X-X-X#X=X$X$X$X=X*X$X*X$X$X$X$X&X=X-X%X-X-X%X-X%X-X-X-X$X-X-X-X"
};
