/* XPM */
static char *_62d807324114c44c571724ee64286e15hABgBbgAVprf2CE[] = {
/* columns rows colors chars-per-pixel */
"32 32 215 2 ",
"   c #61513E",
".  c #675742",
"X  c #6C5B46",
"o  c #6F5E48",
"O  c #705F49",
"+  c #68515A",
"@  c #75644D",
"#  c #776650",
"$  c #786751",
"%  c #7C6B54",
"&  c #79665A",
"*  c #7E6C5B",
"=  c #745C6D",
"-  c #6F5075",
";  c #7D6963",
":  c #7C6375",
">  c #806E57",
",  c #816F59",
"<  c #85735C",
"1  c #88775F",
"2  c #846E64",
"3  c #877364",
"4  c #897762",
"5  c #8C7B63",
"6  c #877168",
"7  c #8C766C",
"8  c #8D7B69",
"9  c #907F67",
"0  c #917E6A",
"q  c #886A77",
"w  c #8A7576",
"e  c #927575",
"r  c #937C74",
"t  c #94777C",
"y  c #908067",
"u  c #93836B",
"i  c #97886F",
"p  c #98896F",
"a  c #958173",
"s  c #988576",
"d  c #978872",
"f  c #9A8B73",
"g  c #96857A",
"h  c #9A867A",
"j  c #9A8A79",
"k  c #9E9077",
"l  c #9E9179",
"z  c #A1947B",
"x  c #5B0F8E",
"c  c #491689",
"v  c #4C1A8C",
"b  c #551A8C",
"n  c #5E0792",
"m  c #4D1794",
"M  c #531D92",
"N  c #5B1B99",
"B  c #610796",
"V  c #67059A",
"C  c #740E9B",
"Z  c #671896",
"A  c #71199F",
"S  c #4C2687",
"D  c #4D248A",
"F  c #52248D",
"G  c #562A8A",
"H  c #5A2E8B",
"J  c #4F2392",
"K  c #5B2696",
"L  c #5B2A95",
"P  c #5C3296",
"I  c #752586",
"U  c #652A97",
"Y  c #6C249D",
"T  c #762498",
"R  c #6A3B9A",
"E  c #6C03A1",
"W  c #7B0BA9",
"Q  c #611EA1",
"!  c #5E27A0",
"~  c #642EA8",
"^  c #772BA6",
"/  c #6C33A3",
"(  c #6938A4",
")  c #7636A2",
"_  c #7535AD",
"`  c #7939B2",
"'  c #6B498D",
"]  c #754E86",
"[  c #7E5E86",
"{  c #6B4797",
"}  c #784D98",
"|  c #78519A",
" . c #6F42A2",
".. c #764AA7",
"X. c #7E56A4",
"o. c #7D44B8",
"O. c #893B96",
"+. c #8117AC",
"@. c #8D14B3",
"#. c #883DAC",
"$. c #903CAE",
"%. c #8F2DB3",
"&. c #9623B8",
"*. c #8334B6",
"=. c #A124BD",
"-. c #A33EBF",
";. c #854988",
":. c #8C5B8A",
">. c #945B8D",
",. c #8C5B9B",
"<. c #9F5D94",
"1. c #976789",
"2. c #9B6C8A",
"3. c #9A7683",
"4. c #987C87",
"5. c #866A98",
"6. c #9B7797",
"7. c #A77A99",
"8. c #8E4FAB",
"9. c #845CAC",
"0. c #9652AB",
"q. c #8449BC",
"w. c #9A47B9",
"e. c #9658B6",
"r. c #A759AE",
"t. c #AB44B4",
"y. c #A757B7",
"u. c #B25CBD",
"i. c #8C67B1",
"p. c #9569B6",
"a. c #9070B9",
"s. c #A564A7",
"d. c #B17EA3",
"f. c #AA6EBA",
"g. c #B365B6",
"h. c #A17EB8",
"j. c #9A32C1",
"k. c #AB30C4",
"l. c #9459C1",
"z. c #9952CB",
"x. c #A84CCA",
"c. c #A757C8",
"v. c #B95DC2",
"b. c #B649D3",
"n. c #AF56D8",
"m. c #BB54D4",
"M. c #9C66C8",
"N. c #9472C1",
"B. c #AB62CF",
"V. c #B869C8",
"C. c #A775CB",
"Z. c #BA78CF",
"A. c #AA69D1",
"S. c #B36DD4",
"D. c #B877D8",
"F. c #BC59E1",
"G. c #C05CCD",
"H. c #C657DB",
"J. c #C27EC6",
"K. c #C867DA",
"L. c #CA75DD",
"P. c #D27EDF",
"I. c #C94DE1",
"U. c #C858E5",
"Y. c #D457E6",
"T. c #C869E5",
"R. c #D964E8",
"E. c #CA79E3",
"W. c #D679E7",
"Q. c #E27DED",
"!. c #9E8984",
"~. c #9D9082",
"^. c #A58E8F",
"/. c #A99398",
"(. c #ACA29B",
"). c #AC84A2",
"_. c #A885AA",
"`. c #AF87AC",
"'. c #B7B1A5",
"]. c #C6A3BE",
"[. c #A987C3",
"{. c #B281CD",
"}. c #B496C9",
"|. c #BB9CCD",
" X c #BA97D7",
".X c #BBA2D4",
"XX c #C88AC4",
"oX c #C799C5",
"OX c #C887D8",
"+X c #C4A2C0",
"@X c #C3A9D7",
"#X c #CDB7D9",
"$X c #D9BBDE",
"%X c #CB81E3",
"&X c #D38AE5",
"*X c #CB9AE4",
"=X c #D99AE9",
"-X c #E08EE5",
";X c #CFA1E3",
":X c #D7A5E6",
">X c #CDB3E0",
",X c #DAB9E7",
"<X c #E7A7EC",
"1X c #E4BAEC",
"2X c #D5CDCB",
"3X c #DBD7D2",
"4X c #D8C0E0",
"5X c #E4C7EC",
"6X c #E9C8EF",
"7X c #E6D8EA",
"8X c #EBDEEF",
"9X c #EBCAF1",
"0X c #EDD8F1",
"qX c #ECE4F2",
"wX c #FAF8FA",
/* pixels */
"u 8 < # % % $ # < $ < < < u f f f f i i 9 1 < < 9 u f f y u 9 4 ",
"8 4 < $ % % @ $ < @ % % 5 i f f p i i u 5 < < < 8 8 u f u i y 1 ",
"u > < % % $ < * # X O > 4 f f u u y 8 u 4 < < % < 4 y f u u u 8 ",
"4 @ @ $ @ & ).]./.8 < 1 u i u u u u i u 4 < > % < 1 9 i u 9 i 8 ",
". X @ % @ * XX<X-X`.s i f f u i 2.1.r i i 4 4 4 4 8 i u u u f i ",
"  . o $ 4 7 XX<XQ.R.d.j f f i a t.k.2.u i u 4 4 4 y i u u u f u ",
"O o $ 4 u r oX0X<XR.K.7.d f k <.G.P.g.t u u 8 5 4 u i u u i i d ",
"% $ < 5 4 s 2XwX0XW.Y.v.4.l h r.=X1XG.1.0 5 5 8 u i i f 9 u i i ",
"< < 8 8 9 j 3XwX9XW.Y.H.s.!.4.g.5X0XH.<.a 5 u i i u p f u 9 u u ",
"8 8 y u p d 2XwX1XR.Y.H.t.3.3.u.9X0XH.<.r f f f f i f f f i i i ",
"8 9 8 8 y 4 (.7X=XY.I.b.=.>.2.v.9X6XH.0.e k f f f f f z z f f i ",
"u u u 1 5 5 g oXL.U.I.m.&.O.:.u.1XOXk.O.7 f l f k z z z z f f i ",
"i u 8 5 1 1 4 ).L.H.H.b.&.T ;.w.x.j.@.;.2 7 0 f k f k l k k f u ",
"5 8 y u u 1 < t V.K.E.x.+.C O.$.+.W C I O.y.2.a f f f a d f f u ",
"4 4 i i 9 8 5 8 s.m.K.%.W V T ) #.^ Z %.Z.L.s.7 i !.).f.6.s i i ",
"u 5 9 8 7 q e r 1.x.x.+.E B Z 8.Z.e.Y e.,X%Xs.t ).@X&XT.s.e 8 u ",
"d 5 < ~.+XV.-.0.y.c.w.A V B Z f.&XS.^ p.{.c.:._.4X8X=XU.r.w u i ",
"i y < '.$XE.b.V.&XE.x.T n B Y }.=XW.w.) ^ ) | #XwX0XE.n.>.6 8 8 ",
"1 1 4 ^.OXT.U.OX:X=XT.j.Z x Y |.,X&XB.^ N b p.7X,XD.x.#.q 8 8 8 ",
"< < < e J.T.U.OX7X,XT.n.z.Y Z h.4X=XA._ K U [. Xc.*.^ ] g i 5 u ",
"8 < < 4 7.Z.F.c.#X,XE.n.S.` b X.#X;XA._ K K / q._ U - g z u 8 8 ",
"< < 4 4 2 ,.*.^ h.[.C.e._ Q v H [.M.q./ M v N / ..5.4.j l f 8 < ",
"1 4 5 4 g } N ..@X{.l.) M m M v R ) U L D G L l.D.*X;X/.l i u 9 ",
"4 4 < < ^.p.Z / {.D.z.` F c m L p..Xi.S G X...C.,X5X*X_.j f f u ",
"% > < < e e.U H p.l.o.~ M c c P [.qX.X{ G H (  X8X@Xp.3.8 d f 8 ",
"$ < 4 < 6 ,.R | 9.R F J L ! M J ..}.a.e.M.q.P { 9. .] w u i f i ",
"@ % < 1 5 [ } @X>XM.P R [..XN.( D P | }.C.o.' = ; ; & 5 i u i u ",
"5 @ < 8 u 3 q `.@XC.' 5.#X8X#X..S 5.5.w : = ; * 4 5 4 4 u u 5 u ",
"u $ @ % u u u 7 4.t 6 6 4.6.[ - + & 2 < < 4 < 4 4 4 u 4 8 u 8 8 ",
"< < 4 < 8 u i f u 8 8 8 4 < , < % < < < < 4 u 8 < < 8 8 4 4 5 4 ",
"1 8 8 8 5 u i i u 5 8 8 < > % < < < < < < 1 u u 5 4 4 4 4 8 < < ",
"< , % 4 y 5 1 1 < % < 4 < % % % % * % % > < 8 8 < < 4 4 4 4 @ $ "
};
