/* XPM */
static char *_5250c7a4ece49bbf6af3e7c72f755883uGxE8NH8EmXqtDW[] = {
/* columns rows colors chars-per-pixel */
"32 32 221 2 ",
"   c #61513E",
".  c #6A5944",
"X  c #6F5E48",
"o  c #725F4A",
"O  c #75644E",
"+  c #79614D",
"@  c #776650",
"#  c #786750",
"$  c #7C6A53",
"%  c #983D3C",
"&  c #A62E36",
"*  c #AB2E36",
"=  c #AD2F38",
"-  c #B22F3A",
";  c #A73532",
":  c #AC3335",
">  c #AC3835",
",  c #A4343A",
"<  c #AC333B",
"1  c #A6393D",
"2  c #AB3A3D",
"3  c #B03636",
"4  c #B2353C",
"5  c #B3393C",
"6  c #804A3F",
"7  c #9D5737",
"8  c #A6483A",
"9  c #B3433C",
"0  c #B9453F",
"q  c #B04C3C",
"w  c #AB543C",
"e  c #A55C3B",
"r  c #B0503E",
"t  c #9D633A",
"y  c #AB6A2B",
"u  c #BD7327",
"i  c #A96737",
"p  c #AB6D3C",
"a  c #B46C34",
"s  c #B2723D",
"d  c #B97738",
"f  c #B87D3E",
"g  c #C9771D",
"h  c #C97825",
"j  c #C17C35",
"k  c #CC7F34",
"l  c #D17C37",
"z  c #A63D41",
"x  c #AB3D42",
"c  c #B43741",
"v  c #B23A41",
"b  c #884D43",
"n  c #9A4A46",
"m  c #8C5549",
"M  c #8A5C4D",
"N  c #94534A",
"B  c #9A544A",
"V  c #935E52",
"C  c #9C5B52",
"Z  c #A34443",
"A  c #AA4346",
"S  c #A44C49",
"D  c #AE4B4C",
"F  c #B44342",
"G  c #B44E43",
"H  c #BA4D41",
"J  c #AC5442",
"K  c #AC5B44",
"L  c #A95649",
"P  c #B35244",
"I  c #B15A42",
"U  c #B55847",
"Y  c #AA5752",
"T  c #A35B53",
"R  c #A85B56",
"E  c #B15352",
"W  c #9E6B45",
"Q  c #846552",
"!  c #8B6453",
"~  c #836E57",
"^  c #816F58",
"/  c #8E6C59",
"(  c #9B6255",
")  c #9C6559",
"_  c #97695A",
"`  c #956C5B",
"'  c #84735B",
"]  c #89755E",
"[  c #96725F",
"{  c #AD6345",
"}  c #A46947",
"|  c #AE6943",
" . c #AC6F49",
".. c #B36846",
"X. c #B16349",
"o. c #B36C4A",
"O. c #AD7243",
"+. c #B47744",
"@. c #B5754C",
"#. c #B77948",
"$. c #B57B4A",
"%. c #A16359",
"&. c #A46B5F",
"*. c #AE7A52",
"=. c #B27952",
"-. c #996F60",
";. c #8B7760",
":. c #8C7B63",
">. c #9A7261",
",. c #987664",
"<. c #937C66",
"1. c #967F68",
"2. c #9B7D69",
"3. c #C77A41",
"4. c #BE823E",
"5. c #E1921E",
"6. c #CE8728",
"7. c #D78826",
"8. c #DC922B",
"9. c #CA8437",
"0. c #D68B34",
"q. c #D38939",
"w. c #CD903C",
"e. c #DB9937",
"r. c #D8983B",
"t. c #E69932",
"y. c #E19A38",
"u. c #E4A22A",
"i. c #E4A13A",
"p. c #E7AC3F",
"a. c #BA8445",
"s. c #B7824C",
"d. c #BB834B",
"f. c #B98755",
"g. c #AA925F",
"h. c #BA985A",
"j. c #928166",
"k. c #998766",
"l. c #94846B",
"z. c #9A856C",
"x. c #97886F",
"c. c #9A8A6E",
"v. c #9B8771",
"b. c #978870",
"n. c #9A8B72",
"m. c #A78E63",
"M. c #B78763",
"N. c #A8936A",
"B. c #B99766",
"V. c #A29275",
"C. c #AC9A76",
"Z. c #A3947A",
"A. c #A7997B",
"S. c #AB9C7C",
"D. c #B29C73",
"F. c #BBA56C",
"G. c #BEA670",
"H. c #B6A37B",
"J. c #BBA67D",
"K. c #BEA97B",
"L. c #C48442",
"P. c #CA8444",
"I. c #CB8B43",
"U. c #C48C4A",
"Y. c #CC8D4A",
"T. c #D38F47",
"R. c #C9934B",
"E. c #DB9140",
"W. c #D59847",
"Q. c #D3944D",
"!. c #CB9552",
"~. c #CD9C53",
"^. c #D29C56",
"/. c #E59C47",
"(. c #CDA344",
"). c #D7A54A",
"_. c #C5A259",
"`. c #DAA759",
"'. c #DEB25F",
"]. c #E4A343",
"[. c #E4A649",
"{. c #E4AD4E",
"}. c #E9B14B",
"|. c #E2A451",
" X c #E4AB55",
".X c #E5AC5C",
"XX c #E5B25C",
"oX c #EAB95C",
"OX c #CAA867",
"+X c #DBA661",
"@X c #D5AC64",
"#X c #D6B36B",
"$X c #C6AD78",
"%X c #CCB177",
"&X c #D3B577",
"*X c #D7B97D",
"=X c #E4B364",
"-X c #E8BB67",
";X c #E3BC72",
":X c #E9BF72",
">X c #F1C158",
",X c #DCC17C",
"<X c #E8C16A",
"1X c #EEC36D",
"2X c #EBC472",
"3X c #EAC478",
"4X c #A99B80",
"5X c #B6A684",
"6X c #BCAB84",
"7X c #C9B687",
"8X c #D5BC84",
"9X c #D2B589",
"0X c #C7B692",
"qX c #E2B881",
"wX c #DFC486",
"eX c #D5C599",
"rX c #E1C688",
"tX c #F0CE8B",
"yX c #EAD08F",
"uX c #F0D48A",
"iX c #E8CF9C",
/* pixels */
"l.:.' @ $ $ $ @ ' $ ' ' ' j.v.v.z.n.x.x.<.] ' ' <.j.n.n.j.x.j.;.",
":.;.' $ $ $ O # ^ O $ ! C R Y E D E Y %._ ] ' ' :.:.j.n.j.x.j.] ",
"l.^ ' $ $ $ ' ^ + 6 % , 1 v c 4 z 2 < c 2 Z C Q ' ;.j.n.x.j.j.:.",
";.O O $ O O $ M n , : * 2 4 4 4 4 4 4 4 , , , % V ] <.x.z.<.x.:.",
". X O $ O o b 1 2 < 4 5 0 H P P P P G 0 4 * = < < T 1.l.x.l.n.x.",
"  . X $ ;.N , < 2 5 0 I @.d.$.@.@.$.$.@.I 9 3 * , 2 R 1.l.x.n.j.",
"o X # ;.%.x = 4 5 U @.+.L.~.~.P.L.I.~.d.p | w > : < c T 1.x.x.b.",
"$ # ' _ 2 z 4 9 X.$.R.I.0. XXXW.E.].XXw.j f O.K 2 < 4 v ) l.x.x.",
"' ' <.S < 1 5 J @.U.r.{.i.oX2X.X|.oX1Xy.e.w.a.W B 2 < x A [ j.j.",
":.:.( 2 < 5 J | a P.[.>XoX-XwX&X@X,X;X{.}.).f i  .L 5 x 4 T z.x.",
":.<.A 1 < P M.f.3.l |.-X,X&X7X6XK.7X$X#X;X^.j d +.*.G v c D 2.x.",
"j.` v , 3 { B.*XqX+X^.#X$XH.S.A.V.A.C.K.$X~.q.q.9.d.o.F c 4 &.z.",
"x.T < : 9 O.U.+XtXiX9XK.S.V.n.n.n.l.c.S.B.~.i.t.0.U.f.P v v Y 1.",
":.S < < P $.R.XX1XrX0X5XV.x.n.n.x.j.' :.N.OX'.-XXX`.h.U 5 x D ,.",
"] z 2 4 J +.I. X:X8X6XA.x.x.x.n.x.j.' ] k.H.8X3X.XQ.f.X.5 < x 2.",
",.2 z 4 J +.Y..X;X8X5XZ.n.x.x.x.x.j.:.:.l.C.%X-X|.T.d.X.2 < < >.",
"2.2 & : { f.@X3XyXeX5XZ.n.n.n.n.x.l.j.<.j.g._.].t.0.L.o.5 , 4 >.",
"2.A * : e a.W.oX2X*XH.c.n.n.x.x.x.j.x.j.k.g.(.u.5.7.4...5 , < ` ",
"] Z : : w f w.i.p.).h.N.n.b.x.n.x.:.j.j.V.F.).u.5.6.f I 5 : x ,.",
"' Z , : q s d h 7.e._.J.4Xn.j.n.j.:.:.c.5X7X<Xp.7.u p r 5 < Z <.",
":.N * : > e i h 7.].*X7X5XC.n.c.l.l.V.D.$XwXuX1XW.a. .F F - B <.",
"' ! 2 * * 8 p 9.r.-X3X#X%XG.D.N.N.m.J.7X`.=X:X;XOXf.K 5 A c _ ' ",
"] ;.S * * > | d.^.`.[.{.`.#XOXh._.!.OXrX`.0.W.!.h.M.G c c D ,.<.",
";.;.M , , < q =.f.P.0.y.]..X).r.).w.Q.=X=Xk d s.*.U v < c &.v.l.",
"$ ^ ~ n < < 5 U  .s j 9.E./.8.7.8.6.9.I.+XU.p } 8 4 x 4 S 2.n.:.",
"# ' ;./ Z < < 5 9 { O.d P.q.h g g u a s s.f.} 8 2 < , x -.x.n.b.",
"O $ ' ] ` A 1 z 5 0 I o.$.+.a y y y t t } X.9 < : * , ( z.x.x.j.",
":.O ' :.l._ A < 4 4 5 9 q w e e 7 7 7 8 2 2 < , * z V ;.l.j.:.l.",
"l.$ O $ j.j.>.S < = 1 , < : 3 > ; ; : : * * * < A _ <.;.:.l.:.:.",
"' ' ;.' :.j.x.z.%.A < < * * & , * * * , * < A C / ] :.:.;.;.:.;.",
"] :.:.:.:.j.x.b.1.` ( S z : & * * < : 1 Z C >.<.;.;.;.;.;.:.' ' ",
"' ^ $ ;.j.:.;.] ' $ ~ / ! m N N N N M M Q ] :.:.' ' ;.;.;.;.O $ "
};
