/* XPM */
static char *_9769bf599a942cffab26fc7e6644d51yCIULIvviM0Saaik[] = {
/* columns rows colors chars-per-pixel */
"32 32 139 2 ",
"   c #0B0B0B",
".  c #141414",
"X  c #1B1B1B",
"o  c #222222",
"O  c #2B2B2B",
"+  c #343434",
"@  c #33363B",
"#  c #3C3C3B",
"$  c #4C483F",
"%  c #3F4653",
"&  c #434344",
"*  c #4C4B46",
"=  c #4C4B4A",
"-  c #53524F",
";  c #58554A",
":  c #444851",
">  c #474D58",
",  c #4E5258",
"<  c #545454",
"1  c #585756",
"2  c #5D5A55",
"3  c #51565F",
"4  c #5B5B5B",
"5  c #615D54",
"6  c #6B634C",
"7  c #66635C",
"8  c #6E6A5F",
"9  c #756C54",
"0  c #79715C",
"q  c #4C5363",
"w  c #4D5769",
"e  c #545960",
"r  c #5A5D63",
"t  c #545B68",
"y  c #585D69",
"u  c #5F6266",
"i  c #5B6068",
"p  c #5D6573",
"a  c #5F687A",
"s  c #646464",
"d  c #6C6A66",
"f  c #64656A",
"g  c #67696B",
"h  c #6C6C6C",
"j  c #7C7666",
"k  c #73716E",
"l  c #7C796C",
"z  c #616772",
"x  c #646A74",
"c  c #6B6D72",
"v  c #646C7B",
"b  c #686E79",
"n  c #6F7172",
"m  c #6E727B",
"M  c #747474",
"N  c #70757C",
"B  c #7B7B7B",
"V  c #8B7F5F",
"C  c #857F6C",
"Z  c #8C846F",
"A  c #88857C",
"S  c #A19677",
"D  c #576786",
"F  c #676F81",
"G  c #6A768E",
"H  c #7A7D84",
"J  c #6F7B94",
"K  c #7F8083",
"L  c #7E838C",
"P  c #7B8291",
"I  c #6380BD",
"U  c #7F92B5",
"Y  c #6B8AC7",
"T  c #838383",
"R  c #8D8B84",
"E  c #83868C",
"W  c #8B8B8C",
"Q  c #918C82",
"!  c #858B94",
"~  c #858C9C",
"^  c #8D9096",
"/  c #8B929C",
"(  c #939393",
")  c #979799",
"_  c #9B9B9B",
"`  c #A89F85",
"'  c #A59E8B",
"]  c #A39F92",
"[  c #BAAD8D",
"{  c #A6A090",
"}  c #ACA795",
"|  c #A3A29E",
" . c #B9B198",
".. c #8C95A4",
"X. c #929AAB",
"o. c #8C99B4",
"O. c #9DA0A6",
"+. c #9EA3AD",
"@. c #A3A3A3",
"#. c #A7A8A9",
"$. c #ACACAC",
"%. c #BEBAAF",
"&. c #A5ACBA",
"*. c #B4B4B4",
"=. c #B3B6BC",
"-. c #BBBBBB",
";. c #C5BB9E",
":. c #D0C7AF",
">. c #C5C2B3",
",. c #CAC6B6",
"<. c #D4CBB2",
"1. c #E1D7B9",
"2. c #ADB9CF",
"3. c #B3BAC5",
"4. c #B8BCC4",
"5. c #B6BDCB",
"6. c #A6B8D6",
"7. c #A9BBDA",
"8. c #A5BBE7",
"9. c #C4C4C4",
"0. c #CCCCCC",
"q. c #D5D2C9",
"w. c #D4D4D4",
"e. c #DBDBDB",
"r. c #DFDFDF",
"t. c #E1DED7",
"y. c #E6E3DC",
"u. c #E9E6DC",
"i. c #CDD8EC",
"p. c #DBDEE2",
"a. c #E2E2E2",
"s. c #E6E6E6",
"d. c gray92",
"f. c #EDEDED",
"g. c #F0F0F0",
"h. c #F5F5F5",
"j. c #F9F9F9",
"k. c gray99",
"l. c white",
/* pixels */
"a.l.d.l.l.d.l.d.j.s.h.s.e.d.w.a.0.e.9.0.w.9.e.0.s.q.s.f.s.l.d.l.",
"l.a.l.f.d.l.s.j.a.g.e.a.a.0.w.9.0.-.9.-.=.9.-.0.-.r.w.e.h.s.l.d.",
"d.l.a.l.l.d.j.r.f.w.r.0.9.0.-.9.*.-.$.$.*.@.=.$.9.-.e.r.w.h.s.l.",
"l.f.l.s.a.h.a.s.w.w.9.9.9.@.-.$.*.@.$.@._ @.( $.$.-.-.0.s.e.f.d.",
"l.d.l.d.s.f.w.r.9.0.*.=.=.#.*.@.$.) _ ( W ( W _ _ $.$.9.r.e.h.s.",
"d.l.d.h.f.0.r.9.9.$.=.#.@.@.( _ W W B B M M T T ( ( $.-.9.s.r.g.",
"l.d.j.a.w.r.-.9.$.=.@.@._ T T M B M M f 4 s s M M W ( $.0.0.f.s.",
"d.j.a.d.r.9.9.$.=.@._ T M g f b s g c b M 4 4 4 *.M W 9.$.w.w.h.",
"l.a.f.w.9.9.$.=.] _ B M B h L ^ h h g h M M g r < s =.W *.-.a.r.",
"s.g.w.w.9.$.*._ _ T B =.( g T T %.:.%.| -.#._ B f y h T _ 9.0.f.",
"h.w.e.-.$.$._ _ W O.E B n m f h C ! ..` 1.u.w.$.K p 4 M _ $.w.w.",
"a.r.9.=.$._ ( T ) ~ H c < # : > v a v / } <.w.2._ 8.s h W $.9.a.",
"w.e.=.*._ ( T h P n @.y < + # R -.5.&./ .. .,.7...B z h T $.=.s.",
"s.9.-.@.( ( h c 4 N U F < M 1 A @.9.t.y.=.+.>.6.R s s B W @.0.w.",
"0.0.$.@.( M M < G I v 4 * 2 = # = s W 0.q.X.$.3.' d B W T $.-.s.",
"r.-.*.( T M = 5 D w M 4 = + . .     X M ( s M _ S M W B ( @.w.e.",
"0.9.@._ W s 7 B t h W g O .     .   . # < & 4 Z C M ( T ( -.0.g.",
"e.=.$.^ ^ u ; L J W _ M X             + & + = j k B B W @.-.a.a.",
"0.9._ X.E < ' m H ( @.( O           o & + + - 1 g _ T _ $.w.e.j.",
"w.-.@./ i.4 { l A | -.p.s .     o O # = O % , s B B ( @.9.e.d.g.",
"a.-.$.W ! s ] Z 9 @.4.3.W h = + 4 s = + Y q = g h W _ =.e.r.j.d.",
"w.0.@._ ~ h 0 [ B s ~ o...( M 4 g i w & & < h h T ( -.0.w.h.e.l.",
"s.9.-.( ! W 8 V Q y # v s < * s x e = 4 s h h T ( =.-.w.g.e.l.d.",
"e.e.*.=._ ( K 7 2 h 3 @ & $ 6 ;.d d | M B M W W *.-.r.d.r.l.d.l.",
"g.0.w.$._ _ T ( h h 4 < < - 5 2 M h B T T ( ( *.*.e.e.a.l.d.l.d.",
"e.d.0.0.-._ @.W _ T W B B B h M M T B W _ _ =.-.e.w.d.h.d.l.d.l.",
"g.r.d.0.-.9.$.$._ @.( ( W B T B T T ( _ @.-.-.r.w.d.y.f.l.d.l.d.",
"h.a.d.r.w.w.9.9.=.*.@.@._ W W W ( ( @.*.-.0.w.s.r.h.f.d.j.g.j.g.",
"d.l.r.g.f.w.a.0.w.-.9.*.@.$._ $.@.=.=.9.e.w.g.e.j.d.l.j.a.l.d.l.",
"l.d.l.a.r.g.r.f.w.a.0.w.0.$.9.=.0.9.r.r.e.g.w.l.d.l.d.g.l.a.h.d.",
"d.l.d.j.j.s.j.s.h.r.f.r.w.a.0.a.w.d.r.d.j.s.l.d.l.d.l.j.d.l.d.l.",
"l.d.l.f.d.h.d.l.d.j.s.g.h.a.g.a.h.s.j.g.e.l.d.l.d.l.d.g.l.d.l.a."
};
