/* XPM */
static char *_d801488dcff4d3ac8eff0b5fbb546d41utfWcrOWI0yrNwV[] = {
/* columns rows colors chars-per-pixel */
"32 32 62 1 ",
"  c #61513E",
". c #675742",
"X c #6F5E48",
"o c #705F49",
"O c #755F55",
"+ c #75634D",
"@ c #786651",
"# c #7D6A54",
"$ c #776058",
"% c #7C645D",
"& c #7E695C",
"* c #7F6760",
"= c #7F6A60",
"- c #806E57",
"; c #816D5B",
": c #85735C",
"> c #88775F",
", c #806761",
"< c #836B64",
"1 c #886E67",
"2 c #866E68",
"3 c #867163",
"4 c #897564",
"5 c #8C7B63",
"6 c #867169",
"7 c #8A7369",
"8 c #8D756C",
"9 c #8E776D",
"0 c #8D7869",
"q c #8E7A68",
"w c #8E796A",
"e c #8E7B6A",
"r c #8E786C",
"t c #8F7C6C",
"y c #907F66",
"u c #907F67",
"i c #90796F",
"p c #917C6F",
"a c #908067",
"s c #908068",
"d c #94836B",
"f c #93846B",
"g c #94846B",
"h c #93806F",
"j c #94836E",
"k c #96876F",
"l c #97886F",
"z c #98886F",
"x c #958270",
"c c #958572",
"v c #988775",
"b c #978970",
"n c #988871",
"m c #9A8C73",
"M c #9A8B74",
"N c #9B8C74",
"B c #9C8E76",
"V c #9E9177",
"C c #9E9178",
"Z c #A0937A",
"A c #A1947B",
"S c #A2967D",
/* pixels */
"f5:@###@:#:::snnnMkly>::ysnNska5",
"55:###+@-+#-7r9i99904:::55snsls>",
"f-:###--@O$,%<<<&=,2<<3#:5ankss5",
"5++#++#&,%%%=2<1<<6,%$%;;5ykkyk5",
".X+#++$,%,279p0tppr91,,,<0gdkgnk",
" .X#5;%,,7ixnnkmCnssp7<%$<0sgkns",
"oX@40,%<7hnNbBCVVnzkss4<*,<0sklb",
"#@:4<&20kmnkNZSSVNnsy5547<<10skk",
"::0<*,7jmnsgmSSZmnkkk5skp<,<75ss",
"554,,,4ggkkmCSCBkzk5knnNB02<<0lk",
"55<%,<55knBNBAVBnms5kVBBBNr627ck",
"s0<%<455kmBmkmBmklsssBCBVZv721jl",
"k4*%,>5yklmVnnnnks5k5skNVBN9<3ps",
"0<*,4>:5asdnnkmnks::y5ssnBV0<<rf",
"4,,<455ssskkklknkg::>5>5kmB0<<3k",
"p<&,355klnnnnkkkks555::5snN0%%<0",
"x,$%3:5knBknBnnnkgsy5::5sNmh,%<h",
"k,$%;5slys5aNmkkksks5555bBnp<%<5",
"4,%,;55bk55snbknk5s55555kk57,*<y",
":<$%3y5nnssnBbsns5555555:#:3<,<s",
"5;%%,35lk5sNmngss5adds555kp76<45",
"::,%%;5kl5ynzls55>skkks4-k7<375:",
">53%%<0sksskzka5>>ykf5s:5v2<<rsy",
"55-,$,7sss55555:>>55ss5s07<<7cnf",
"#-:<,,<005:-:55::-:5kks4%,<<4bN5",
"@:5:<,,<70>5>55:###:5y07,*%0sknk",
"+#:>07,,<74y55::#-##44<*%%;5kkks",
"5+:5k07<<<21<<3;#;<,,<%O<345fs5s",
"h#+#sss0<,%%,,,,%%,%%%%<45s55h55",
"::5:5slny7<,,%$$%%$$,<00::555555",
">5555skls504<,%,<<<<34gs545555::",
":-#5s5>>:#:>:##&#-##->55::5555+#"
};
