/* XPM */
static char *_9aeb033e57d4f80c929692c26536351D1v5pNShSc0cGgCN[] = {
/* columns rows colors chars-per-pixel */
"32 32 221 2 ",
"   c #93846B",
".  c #8E7E65",
"X  c #84735B",
"o  c #776650",
"O  c #7C6A53",
"+  c #7D6B54",
"@  c #7B6952",
"#  c #817058",
"$  c #83715A",
"%  c #85745D",
"&  c #908068",
"*  c #998A72",
"=  c #998B73",
"-  c #998A71",
";  c #9B8D74",
":  c #96876E",
">  c #97886F",
",  c #907F67",
"<  c #89775F",
"1  c #85735B",
"2  c #83725B",
"3  c #928168",
"4  c #918168",
"5  c #95856C",
"6  c #908067",
"7  c #8A7961",
"8  c #8F7F66",
"9  c #84725A",
"0  c #7A6952",
"q  c #7F6D56",
"w  c #76644E",
"e  c #786750",
"r  c #816F58",
"t  c #75644E",
"y  c #7B6A54",
"u  c #7E6D57",
"i  c #8B7B64",
"p  c #96876F",
"a  c #9C8D74",
"s  c #988970",
"d  c #97876E",
"f  c #94846C",
"g  c #92826A",
"h  c #8C7A62",
"j  c #87755E",
"k  c #84725B",
"l  c #827159",
"z  c #8E7D65",
"x  c #8E7D64",
"c  c #93836B",
"v  c #998B71",
"b  c #88775F",
"n  c #806E57",
"m  c #86745C",
"M  c #7C6B54",
"N  c #7A6851",
"B  c #817059",
"V  c #806F59",
"C  c #76654F",
"Z  c #6D5C47",
"A  c #705F49",
"S  c #897861",
"D  c #998B72",
"F  c #988971",
"G  c #94846B",
"H  c #93836A",
"J  c #918068",
"K  c #8F7E66",
"L  c #8A7860",
"P  c #87765E",
"I  c #86755D",
"U  c #928269",
"Y  c #897962",
"T  c #72614B",
"R  c #77664F",
"E  c #796851",
"W  c #806F58",
"Q  c #96866D",
"!  c #94836B",
"~  c #938269",
"^  c #8B7A62",
"/  c #816F57",
"(  c #7E6B54",
")  c #95856D",
"_  c #8D7C64",
"`  c #695843",
"'  c #75654F",
"]  c #74634D",
"[  c #918169",
"{  c #978870",
"}  c #9B8D75",
"|  c #9A8B72",
" . c #96866E",
".. c #97876F",
"X. c #897860",
"o. c #94856C",
"O. c #61513E",
"+. c #675742",
"@. c #6F5E48",
"#. c #7B6953",
"$. c #8A7962",
"%. c #7F6E58",
"&. c #93826A",
"*. c #9A8C73",
"=. c #9E9178",
"-. c #786650",
";. c #92836B",
":. c #8D7D65",
">. c #9A8C74",
",. c #978970",
"<. c #9C8E76",
"1. c #9E9177",
"2. c #9D9077",
"3. c #998A70",
"4. c #98886F",
"5. c #928169",
"6. c #827059",
"7. c #9A8C72",
"8. c #9B8C73",
"9. c #9B8C74",
"0. c #A0937A",
"q. c #A2957C",
"w. c #A2967D",
"e. c #9E9077",
"r. c #998970",
"t. c #85745C",
"y. c #83725A",
"u. c #A0937B",
"i. c #95866D",
"p. c #907F66",
"a. c #918067",
"s. c #98896F",
"d. c #A1947C",
"f. c #9F9278",
"g. c #9D8F76",
"h. c #9C8E75",
"j. c #9C8E74",
"k. c #97886E",
"l. c #8F7E65",
"z. c #8B7961",
"x. c #8D7C63",
"c. c #A1947B",
"v. c #9D8F75",
"b. c #9D8F77",
"n. c #A0947B",
"m. c #A09279",
"M. c #9B8D73",
"N. c #8C7B63",
"B. c #A09379",
"V. c #A1957C",
"C. c #8C7B62",
"Z. c #988A70",
"A. c #9A8B71",
"S. c #918269",
"D. c #82715A",
"F. c #85735C",
"G. c #93836C",
"H. c #8E7D66",
"J. c #91816A",
"K. c #978871",
"L. c #86745D",
"P. c #8B7962",
"I. c #8B7A63",
"U. c #95866E",
"Y. c #8D7B63",
"T. c #91826A",
"R. c #887760",
"E. c #8F7E67",
"W. c #988A71",
"Q. c #8E7E66",
"!. c #95876E",
"~. c #907F68",
"^. c #9A8B73",
"/. c #8C7A63",
"(. c #7F6E57",
"). c #94846D",
"_. c #9E9078",
"`. c #837159",
"'. c #887860",
"]. c #9F937B",
"[. c #A2957D",
"{. c #8F7F67",
"}. c #87755D",
"|. c #88765E",
" X c #95856E",
".X c #9F9279",
"XX c #86755E",
"oX c #93846C",
"OX c #84745C",
"+X c #908169",
"@X c #978971",
"#X c #827058",
"$X c #786851",
"%X c #8A7B64",
"&X c #988A72",
"*X c #796750",
"=X c #88765F",
"-X c #7E6C55",
";X c #7C6952",
":X c #8D7C65",
">X c #87775F",
",X c #908069",
"<X c #8C7C64",
"1X c #96866F",
"2X c #92826B",
"3X c #8B7C65",
"4X c #73614C",
"5X c #85755E",
"6X c #8C7B64",
"7X c #91826C",
"8X c #7B6A53",
"9X c #74624C",
"0X c #7E6C54",
"qX c #7D6A53",
"wX c #897760",
"eX c #8A7861",
"rX c #837059",
"tX c #7F6D55",
"yX c #7F6C55",
"uX c #77654E",
"iX c white",
/* pixels */
"  . X o O + @ o # @ $ $ % & * = - ; : > , < 1 2 , 3 - ; 4 5 6 7 ",
"8 7 9 0 q + w e r t y u i p * a s d f g h j k l z x c v c > 4 b ",
"  n m M O N B V C Z A n S D F G H J K 5 L P j + I 7 6 s 5 U g K ",
"Y t T @ R w E M W k I < & Q g ! ~ 5 : H ^ m / ( $ L , 5 f , ) _ ",
"` Z ' M ] T ] $ K [ { : } | g f s -  ...) 7 7 X.^ K 5 ! 5 G s o.",
"O.+.@.#.$.%.B g &.Q | D D *.p *.=.s &.f ..J 7 X.X.6 5 G G 5 F [ ",
"A @.-.X.;.:.^ s : - | >.,.<.1.1.2.3.4.f [ 5._ ^ ^ J Q H H : > { ",
"M e 6.h 7 5.> 7.v 8.- : 9.0.q.w.e.; D U , _ h _ H 5 : r.J H d ) ",
"t.y.K x , , 5 s 7.s U G *.w.w.u.*.- d f  ._ J ) i.g s | H p.3 & ",
"_ x a.g s.6 8 G G 5 ) 8.=.d.f.g.: 4. ._ o.s s ; h.f s j.| 5 k.f ",
"K , K l.6 z.h x.d 3.a ; h.c.1.j.- 7.U K f e.g.h.v.b.e.n.m.M.s Q ",
"c c U X._ N.z _ o.*.g.8.: 8.j.7.Q > J 5.g h.=.g.1.B.0.q.V.8.r.> ",
" .U l.C.X.b L p.5 > 8.e.D Z.v s d & K 5 . H 5 ; e.j.e.=.=.e.A.H ",
"_ l.3 H U < m _ 6 H ! - s i.M.s  .S.D.I , 8 ~ H s h.e.| j.| ; f ",
"^ ^ Q d , K N.U &.U Q : ) > : s ..H F.j b ^ < N.: M.h.4.4.-  .p ",
"G.h , , L X.8 f : - - - D : 5 d  .& z H.X.P j 7 H - ; : l.K K J.",
"K.N.k L.7 j _ 5 - h.o.s ; s s F ..G [ , P.m 6.S c 9.*.; [ I.J U.",
"> J m m 1 7 5.d , [ K , 9.*.p U.: c ) 5.Y.^ ^ 7 { b.| 9.T.R.K E.",
"L b 7 N.< ^ _ ,.U.I.N.c W.{ i.D ) Q.[ z ^ ^ N.z  .!.:.) i.& z ~.",
"F.m F.h 6 J K * ^.J H | h.{ 4 | g /.L C._ _ 7 z.% (.t.)._.o.N.& ",
":.`.`.z.N.X._ > f I.J ; *.- G c & _ 6 ! ! &.K ^ '.U.p ].[.c _ {.",
"m m L 7 }.$ _ : > P.~.s 4.k.3 z K |.J : ) o.[ R.W U. X* .X* Q.XX",
"< 7 _ X.z.z.& c  .H g : 4.5 6 X.< b , f oXz [ OX'.=.* } =.p [ , ",
"7 X.`.F.z.z H H U H . N.7 _ N.P b |.Y.{.c ;.Q.& +X@X} = = * F oX",
"+ / #XI L 5.U d K z.I r 1 x z.t.F.n X _  XU.& $.$X%X&XU.Q.{ } z ",
"*Xm L P =XY., Q Q.x < L < N.7 1 -X;XN k K & E.{.:X:X>X,XJ.U.= p ",
"w -XI =Xz & {.: 5 H , ~ z z.j #X+ n ( -XX.Q.Q.7 N.X.+ <X1Xf U.2X",
"3X4X5Xz f . & U G 5 Q z |.1 |.$ ( -XF.r 1 ^ R.r 7 6XX.P.oXJ.N.;.",
"7X8X9X-XH U U . z h K ^ P 6.m $ 0XqX$ k 9 wXb 7 I.^ & $.E.G.K z ",
"$ k X.j K H > - &._ , _ L m #X9 / `.}.m m 7 & K P }.:.Q.X.7 N.^ ",
"b _ x z x.U Q > H h x._ P n ( `.}.P m m m b c & I.wX$.eX^ _ #XL.",
"1 r + ^ 3 x < |.m ;XrXb 9 ;XqX+ + r tXyXn P Q._ j X ^ ^ z.L uXE "
};
