/* XPM */
static char *d69a04d9d2af41df8fd842e86171e662O3WCxzCD3VDWWJ5Q[] = {
/* columns rows colors chars-per-pixel */
"32 32 239 2 ",
"   c #051702",
".  c #031D01",
"X  c #072300",
"o  c #0C2503",
"O  c #062C00",
"+  c #0C2C03",
"@  c #162505",
"#  c #122C01",
"$  c #122C0B",
"%  c #1B2F0C",
"&  c #0E3403",
"*  c #0B3A01",
"=  c #123404",
"-  c #1A3406",
";  c #153B03",
":  c #1C3B05",
">  c #143309",
",  c #1B340A",
"<  c #163B0B",
"1  c #1B3A0B",
"2  c #1B2E11",
"3  c #1D3515",
"4  c #1E3C13",
"5  c #283506",
"6  c #213C05",
"7  c #233D0C",
"8  c #232F13",
"9  c #243D14",
"0  c #293A16",
"q  c #333B1E",
"w  c #2A3C21",
"e  c #303F20",
"r  c #0C4200",
"t  c #164204",
"y  c #1C4304",
"u  c #1C4B02",
"i  c #1C430C",
"p  c #1D490C",
"a  c #155107",
"s  c #1D4212",
"d  c #234404",
"f  c #244C04",
"g  c #2B4903",
"h  c #23440D",
"j  c #2B400C",
"k  c #234A0D",
"l  c #2B4C0C",
"z  c #354A0A",
"x  c #265006",
"c  c #2A5704",
"v  c #2C5C04",
"b  c #25530D",
"n  c #2C520B",
"m  c #27590B",
"M  c #33590D",
"N  c #395B0C",
"B  c #224213",
"V  c #2A4514",
"C  c #254B12",
"Z  c #2C4B14",
"A  c #28471C",
"S  c #2C4D19",
"D  c #364519",
"F  c #33441C",
"G  c #245214",
"H  c #2C5313",
"J  c #265C17",
"K  c #2C5A14",
"L  c #2B541D",
"P  c #2C5A19",
"I  c #325614",
"U  c #395315",
"Y  c #325E14",
"T  c #3B5D12",
"R  c #33551B",
"E  c #3A5519",
"W  c #335C1C",
"Q  c #3B5D1A",
"!  c #29620E",
"~  c #356708",
"^  c #33620C",
"/  c #3B6B0E",
"(  c #3C7D0F",
")  c #2F621B",
"_  c #356213",
"`  c #3A6514",
"'  c #3E6C14",
"]  c #33621B",
"[  c #3B651E",
"{  c #3C6B1C",
"}  c #377617",
"|  c #294C21",
" . c #354B25",
".. c #394F26",
"X. c #2E5920",
"o. c #345322",
"O. c #3A5626",
"+. c #335B23",
"@. c #3A5C23",
"#. c #395D2B",
"$. c #3F5B31",
"%. c #356223",
"&. c #3B6422",
"*. c #336C21",
"=. c #3C6A23",
"-. c #36632B",
";. c #3C622A",
":. c #3D6929",
">. c #3E7322",
",. c #3B742D",
"<. c #3C6732",
"1. c #425C1D",
"2. c #49631B",
"3. c #436D1B",
"4. c #45681D",
"5. c #417515",
"6. c #43731C",
"7. c #48791A",
"8. c #52741A",
"9. c #434C2D",
"0. c #445C27",
"q. c #405F33",
"w. c #426324",
"e. c #4C6323",
"r. c #426B23",
"t. c #496A25",
"y. c #4B652B",
"u. c #426B2A",
"i. c #4A6D2C",
"p. c #586F2D",
"a. c #457324",
"s. c #477627",
"d. c #437A24",
"f. c #4B7A24",
"g. c #44732B",
"h. c #4C732D",
"j. c #4C7C2B",
"k. c #567C26",
"l. c #537F2B",
"z. c #4E6434",
"x. c #476C31",
"c. c #546B37",
"v. c #487735",
"b. c #4D7A33",
"n. c #4C733A",
"m. c #567E31",
"M. c #5A7C33",
"N. c #557439",
"B. c #54753B",
"V. c #547C3C",
"C. c #5A7B3E",
"Z. c #607E2A",
"A. c #637E36",
"S. c #4B7442",
"D. c #597749",
"F. c #697E4E",
"G. c #4E811E",
"H. c #51821D",
"J. c #478425",
"K. c #4C8321",
"L. c #548324",
"P. c #598A26",
"I. c #55822C",
"U. c #548A2B",
"Y. c #58912A",
"T. c #4B8232",
"R. c #548432",
"E. c #5C8335",
"W. c #568A31",
"Q. c #5C8B33",
"!. c #558439",
"~. c #5C843B",
"^. c #5B8C3D",
"/. c #56933B",
"(. c #5C9538",
"). c #678926",
"_. c #648D2C",
"`. c #649529",
"'. c #638B33",
"]. c #658639",
"[. c #738B34",
"{. c #68953B",
"}. c #749837",
"|. c #6CA337",
" X c #73A93D",
".X c #7EB43A",
"XX c #4D8F41",
"oX c #5A8441",
"OX c #588745",
"+X c #5D9B47",
"@X c #5C9F51",
"#X c #618344",
"$X c #688543",
"%X c #658D45",
"&X c #648D4B",
"*X c #6A8948",
"=X c #639648",
"-X c #6A9E4C",
";X c #769745",
":X c #729D4C",
">X c #6B8B53",
",X c #679850",
"<X c #6B9B55",
"1X c #749A56",
"2X c #739A5C",
"3X c #68A64A",
"4X c #78A749",
"5X c #6CA352",
"6X c #6FA15A",
"7X c #75A353",
"8X c #75AB53",
"9X c #7BAC57",
"0X c #75A45B",
"qX c #7AB657",
"wX c #759864",
"eX c #7BA464",
"rX c #7BB864",
"tX c #829559",
"yX c #80AF4D",
"uX c #8DA857",
"iX c #81B858",
"pX c #96BA5E",
"aX c #819C63",
"sX c #84AE6A",
"dX c #90AC64",
"fX c #82B46B",
"gX c #87B868",
"hX c #96BA63",
"jX c #92AF71",
"kX c #88B973",
"lX c #A8BB7D",
"zX c #87C15B",
"xX c #92C371",
"cX c #97C678",
"vX c #92D276",
"bX c #9AD476",
"nX c #ABD276",
"mX c #98D38A",
"MX c #AACF89",
/* pixels */
"K.o $ 7X^ n i n.Q C K o - _.R f.C.K Y h 0X(.f.b.=X> F E.] Q.y Y.",
"/.W.< $.l ; U y > Y !.~ 1 }.o 8.:XL.A * (.:.| o t _ xX}.H B.! a ",
"` o 7.Z B > & / Y 4X: 4.~ E g @ 7 '.4XI.>.x.k v 4 -.c t #XY ( ; ",
"Z < Q.b -X& G [ &.V.> ;X|.&Xp D Z -.k = Z F P V.>.0XD.y ] mX~ U.",
"o.xXi 9Xw X.B v ^.6 ~.2Xh.k u.6Xv ; a.cXj E w.t.B.[ c.-.-.b H P ",
"1 5.K o T.9 h qX  R qX[ ) , D  .].U d 7Xl.E : @.>XE $X=.] b +Xi.",
"t  Xm.W 0Xj.u gXW k j.G S R.1 % s.I.i.*XS.3.: W @ 0 : 9 + h.3Xx.",
"s.hXh V B 8X; M.S 6X` E }.b < i n.%Xn.k.M -X} < $ Y ,XP :.+ N ~.",
"9 : k d s '.qX=.%.Z.kXb x Z rXi s.Z 5 m T r.> : C P P +X[ =.nXQ ",
"XXv.z J &X%.U.h =X`.# s._.p U Q =Xp.+.yXI B.=.p qX, MXXX{ 5 v 3X",
"r.l.B x.k - W %.(.P.F d K b.R h.q.>Xe o.; > 1 = O.bXs b 9 3 cXi.",
"f.'._ = ~.eXn i wX[ :XT.y.[ ^ ; k + d W > = =.1 l W !.T.1XV 2Xb.",
"oXy gXr O.A [ ` 1 b f t 3.[ T.{ l = ; % m.k.MXQ C.M.H e.u.sXi &X",
"'.. Z z.{.vXA.Z 4 L >.jXE 1XD.uXkX3X{.{ _ >.i.[ : < m.wXI  .` ; ",
"> G / j.8X3Xg -Xb g.O P..Xi.y =XZ J.k R.<XX k n.z X.Z f.q P.a.|.",
"`.7 1 $ T + V 2.k -.&.pX(.=.t.+ $ 8X;.y l.j.7.xX3.l o.}.h , 1X0X",
"0.[ _ k 8XK.} B.!.o F ~.f U.+.U.5.X $ :X` d t V.W +.k 2 , 8.#.j.",
"$X'.< * j.f A ..u { iX;Xw.0.! a /.d.u.z.d : 6 k > W b.7.- }.r.k.",
"- ;X{.H 7X].k v s <.6.y >X{ ( O ] - 7.C R % = / r.H.u a.L.y.z q ",
"@.; H , 9Xa.C.=.f.0XD.* :.mX~ `.j + L.j.R.+ G u R Q [.d B eXC j ",
"5.= L.W bX$ 3 r.H _ B.%.x.u l &.y.sXW kX8 G > ~ gXtXV.g.S ! ] <X",
"m.5 h #.,.hX, X.i I : b.=.] @X{ > Q.m o ,.K 7X6.+.z.8.U P gXD F ",
"j.f.W c.- W ) G.OXn + + y i.gXn.;  XE.C fX:XW.k.Z B b.:.7 W.: > ",
"@.I.o.8.c K @ K.wX&.5XK ] # N h.j.pXd 9 + qX6./ j eX7.F.).p . 1 ",
"g.w.0.K M {.P R t.7  .<X+.=.nXH 1 &.S # % < f Z #X!.*.b d 6 8X; ",
"=XtX+._.d I G g.B.' 1.$.3.0 k.qX+Xv.j T.i %XB.4X[ u #X!.).k U 3.",
"c.D.9.H 1 ~ %X[ u V.u 2Xf V f.N.E.I.9X5 @.{ {.3X3Xd K d b oXl i.",
"d X : C > + u.B l R.A dXi.h OXb.I.l.i 8 vXoXf %.>Xt.gXd.y.=.{ d ",
"l ; < = ` j.lXr.rXI.4X|.:X#XB g.V.h gXiX7X&XfX3.s K d f j.Y /.h.",
"fX{.k.g.^ s.i.R.K.p [ }.f U 6.y P.# &Xy Q.H [.V B C >.aXy ,Xq.dX",
"= d.R ].sX. u.oX} =X2.f.q _._ Y.# _ ' a.rXzXN 5X&.g.> `.|.].k /.",
"X -X@.x g.^.P.nXw.n L [.h ..E.fXR : 9 + M + A U i n.=.hXY.=.*X+ "
};
