/* XPM */
static char *_b4a0748f274447bc79b32fda02bc4d2bBOJOVDLIFeaiaSy[] = {
/* columns rows colors chars-per-pixel */
"32 32 204 2 ",
"   c #080605",
".  c #120D0A",
"X  c #051A06",
"o  c #051608",
"O  c #061708",
"+  c #0B1C0A",
"@  c #18170B",
"#  c #111B0A",
"$  c #071812",
"%  c #191614",
"&  c #221A14",
"*  c #2B1C13",
"=  c #331D13",
"-  c #072409",
";  c #0B240B",
":  c #0A2E0A",
">  c #172408",
",  c #13210E",
"<  c #07300E",
"1  c #0A320B",
"2  c #0C3A0C",
"3  c #103C0B",
"4  c #192913",
"5  c #073A12",
"6  c #193618",
"7  c #282316",
"8  c #2D231C",
"9  c #3B2414",
"0  c #30261D",
"q  c #203A1E",
"w  c #173023",
"e  c #372B24",
"r  c #383429",
"t  c #2A3237",
"y  c #4C2B17",
"u  c #44331D",
"i  c #60381D",
"p  c #47382A",
"a  c #463A2C",
"s  c #463E32",
"d  c #483E31",
"f  c #653D21",
"g  c #0D420D",
"h  c #174A0C",
"j  c #1D4B0C",
"k  c #0B4515",
"l  c #0C4616",
"z  c #124514",
"x  c #134818",
"c  c #0E5014",
"v  c #0E551B",
"b  c #0E5D1C",
"n  c #17571A",
"m  c #2D580B",
"M  c #35500B",
"N  c #0F641F",
"B  c #1E6316",
"V  c #14611E",
"C  c #246319",
"Z  c #256D1C",
"A  c #27741B",
"S  c #2B741A",
"D  c #2E791D",
"F  c #30791F",
"G  c #2F4F21",
"H  c #295729",
"J  c #345722",
"K  c #364C39",
"L  c #0D6725",
"P  c #176628",
"I  c #0F7325",
"U  c #0F7A28",
"Y  c #177725",
"T  c #147D28",
"R  c #286725",
"E  c #2A6B27",
"W  c #404803",
"Q  c #574F0E",
"!  c #625615",
"~  c #4E6D09",
"^  c #6C7412",
"/  c #4B4329",
"(  c #565023",
")  c #5E5323",
"_  c #4B4335",
"`  c #494736",
"'  c #4D4539",
"]  c #514639",
"[  c #564838",
"{  c #554C3E",
"}  c #654628",
"|  c #68552B",
" . c #61513E",
".. c #7C5334",
"X. c #407C24",
"o. c #666E3A",
"O. c #767A34",
"+. c #373C45",
"@. c #2D4356",
"#. c #304053",
"$. c #035961",
"%. c #0E7366",
"&. c #564C46",
"*. c #575344",
"=. c #5D5141",
"-. c #675742",
";. c #6C5B45",
":. c #6C5D49",
">. c #7A5E45",
",. c #705F49",
"<. c #4A6E5D",
"1. c #4D785E",
"2. c #6E614E",
"3. c #74634D",
"4. c #7F6348",
"5. c #6C764A",
"6. c #6F6250",
"7. c #746551",
"8. c #786750",
"9. c #756853",
"0. c #7C6A54",
"q. c #7D6E59",
"w. c #7B765A",
"e. c #555965",
"r. c #516F6F",
"t. c #855F39",
"y. c #8A6835",
"u. c #866649",
"i. c #866B4E",
"p. c #946F4F",
"a. c #967543",
"s. c #806E57",
"d. c #816F58",
"f. c #8D7555",
"g. c #84735B",
"h. c #89765C",
"j. c #89765E",
"k. c #9B7552",
"l. c #967857",
"z. c #9B7C5C",
"x. c #A37F48",
"c. c #867761",
"v. c #897760",
"b. c #8C7B63",
"n. c #907F67",
"m. c #907F68",
"M. c #1C8529",
"N. c #278827",
"B. c #358D22",
"V. c #2B9229",
"C. c #379023",
"Z. c #399524",
"A. c #359A29",
"S. c #399D29",
"D. c #3DA129",
"F. c #428D1D",
"G. c #658308",
"H. c #799507",
"J. c #57A31D",
"K. c #63A219",
"L. c #7ABF1D",
"P. c #508626",
"I. c #419028",
"U. c #42A429",
"Y. c #70AD2A",
"T. c #39947A",
"R. c #7F8B5C",
"E. c #828C03",
"W. c #9CA904",
"Q. c #8BA113",
"!. c #A8AC0A",
"~. c #A9B503",
"^. c #AB8A31",
"/. c #BA9D32",
"(. c #AFA926",
"). c #B1CC17",
"_. c #B8D31A",
"`. c #D2D50F",
"'. c #E0E10E",
"]. c #D8C42D",
"[. c #E2D028",
"{. c #9C8140",
"}. c #96805A",
"|. c #9B805A",
" X c #AD8957",
".X c #8F826C",
"XX c #928167",
"oX c #93836B",
"OX c #97886F",
"+X c #98886F",
"@X c #948672",
"#X c #978870",
"$X c #9A8B72",
"%X c #9E9077",
"&X c #9D9079",
"*X c #B69668",
"=X c #A69272",
"-X c #CAA345",
";X c #7C8B98",
":X c #94AD99",
">X c #D3B48A",
",X c #D2B68C",
"<X c #E1CA9E",
"1X c #ECD0A5",
/* pixels */
"oXb.g.8.0.0.0.8.g.0.g.g.g.oX$X$X$X$XoXoXb.j.g.g.n.oX$X$XoXoXXXv.",
"b.v.g.0.q.0.3.8.d.3.0.q.g.i.l.|.|.z.i.d.j.g.g.g.b.b.oX$XoXOXoXj.",
"oXs.g.0.0.0.g.d.3.:.,.3.;.y.^./././.^.{.|.f.j.0.g.v.XX$XoXoXoXb.",
"v.3.3.0.3.3.0.0.d.g.q.` / ^.[.'.'.'.'.].-Xx.i.0.g.v.n.oXoXn.oXb.",
"-.:.3.0.3.3.3.g.b.v.' G X.Y.L.L.L.L.L._.[.-X{.f.v.b.oXoXoXoX$XoX",
" .-.:.0.v.q.g.oXg.{ G C Z S S S S S S K.).[.-Xa.4.b.oXoXoXoX$XoX",
",.:.8.v.oXb.v.c.*.q C Z B B B B B B B D K.).].^.t.j.oXoXoXoXOX#X",
"0.8.g.b.v.oXOX*.6 v n A C.Z.Z.Z.Z.Z.Z.A B F.).(.a.n.oX$XoXoXoXoX",
"g.g.n.b.n.n.oX' ; l V N.D.U.U.U.U.U.U.A c c ~ O.}.oX$X$XoXn.oXoX",
"b.b.XXoXXXl.=X .6 v b Y V.V.D.U.U.U.U.B.C 1 3 5.=X|.oX$X$XoXOXoX",
"b.n.b.j.f.*X>X5.n L b b L T V.A.S.U.U.S.Z + 1 w.>X*Xz.oX%X$X$XoX",
"oXoXoX>.p.,X1XR.n I I k 5 L Y T N.S.D.V.V o 1 R.<X>Xk.j.%X$X$X#X",
"oXoXb.g.i.k.*Xo.n I T v < : k N T M.M.M.b o 1 o. Xk.f.oX$X&X$XoX",
"b.b.oXoXj.u.t.<.%.L b c 2 - - < k b I I k $ $.<.t.i.oX$X$X$X$XoX",
"v.v.oXoXb.g.} 1.T.H z g g 2 - X - 1 b b 1 $ T.1. .b.$X+X+X$XoXoX",
"oXb.n.n.v.q.r ^ (.| M h g g 2 2 : X 1 g : > Q.^ / b.$XoXb.b.b.oX",
"$Xb.g.g.v.g.2.) ! y.!.G.h g g g 2 : X o 7 } Q ( 7.#X$X$XoXv.oXoX",
"OXoXg.g.g.v.b.9.[ / ^ E.Q.H.m 2 m H.E.W @ u / :..X&X$X$XoXv.b.b.",
"v.j.v.b.j.v.b.w.{ 4 > ^ ~.W.G.~ G.W.~.~ > 4 ` 8.oXoXb.oXoXoXb.m.",
"g.g.g.b.b.c.g.{ q P z j m M W.`.W.W m j z P w ' 8.8.g.oX&XoXb.oX",
"b.g.g.b.7.r 8 8 *.:XK k b V F.J.F.V L 5 K :Xr.t 8 r q.&X&XoXb.m.",
"g.g.v.:.a 9 9 r e.;Xt k I U T T T U U 5 r @Xr.+.9 9 a 9.$X$Xb.g.",
"j.v.b._ * i ..&.#.@.w x R E E E E E E x 4 p +.&...f * { #XoXoXn.",
"v.v.g.d * f z.{ % $ v J ) ) ) ) ) ) ) J n # $ =.l.} * { .X$X$XoX",
"0.s.g.7.] 8 e & + v N.I.P.P.P.P.P.P.P.I.N.v o & e * { q.b.#X$Xb.",
"8.g.v.g.8.] _ 8 o 5 Y A.U.U.U.U.U.U.U.A.Y x r _ _ _ 7.b.oXoX$X#X",
"3.q.g.j.v.c.g.s . # x Z D F F F F F D Z l + _ :.q.q.0.b.oXoXoXoX",
"b.3.g.b.oXb.oX' & * # o + , , , , + # # o   . _ g.b.v.v.oXoXb.oX",
"oX0.3.q.oXoXoX0.] %     % _ =.=.a . 9 y y = . s g.v.oXv.m.oXb.b.",
"g.g.v.g.b.oXOX#Xq.] s s { 0.q.d.:.d 9 9 = * r :.g.g.b.b.v.v.b.v.",
"j.b.b.b.b.oXoXOXm.g.g.g.q.q.0.g.g.0.a 0 8 e 6.v.v.v.v.v.v.b.g.g.",
"g.d.0.v.oXb.j.j.g.0.d.j.g.0.0.0.0.s.3.:.:.7.v.b.g.g.v.v.v.v.8.0."
};
