/* XPM */
static char *ba3cd7e822934261ca838fcbfd3a1a50f4UeahUbmCff4IcS[] = {
/* columns rows colors chars-per-pixel */
"32 32 86 1 ",
"  c #381F14",
". c #341F18",
"X c #2D221F",
"o c #382013",
"O c #392411",
"+ c #30201B",
"@ c #372219",
"# c #38261C",
"$ c #3A281E",
"% c #252526",
"& c #2B2320",
"* c #292423",
"= c #272728",
"- c #292A2B",
"; c #2C2D2F",
": c #3D2B20",
"> c #35352A",
", c #3D3C30",
"< c #3B3B35",
"1 c #34363A",
"2 c #472C14",
"3 c #4D2F15",
"4 c #4F3016",
"5 c #523216",
"6 c #663D1A",
"7 c #4D3B2D",
"8 c #403E31",
"9 c #6D411C",
"0 c #5D4125",
"q c #50412C",
"w c #444034",
"e c #5B4732",
"r c #554A36",
"t c #5A4F39",
"y c #3D3F44",
"u c #3F4146",
"i c #5C5B4A",
"p c #4F555C",
"a c #605F4D",
"s c #656553",
"d c #666654",
"f c #686856",
"g c #6C6C58",
"h c #73745E",
"j c #787961",
"k c #8F5326",
"l c #92552A",
"z c #975D34",
"x c #BC5B34",
"c c #97673D",
"v c #AC6825",
"b c #B06C27",
"n c #B46F29",
"m c #B9732C",
"M c #D5603C",
"N c #C67E34",
"B c #E67B54",
"V c #C98135",
"C c #CC8337",
"Z c #CE8538",
"A c #D2853D",
"S c #808066",
"D c #838468",
"F c #87876A",
"G c #8B8B6C",
"H c #8E8E6E",
"J c #939372",
"K c #979775",
"L c #9E9E7A",
"P c #A4A57F",
"I c #D88544",
"U c #E98758",
"Y c #EE875F",
"T c #E09271",
"R c #F69B77",
"E c #F8A27E",
"W c #607394",
"Q c #FAA683",
"! c #C4C3AA",
"~ c #829DD4",
"^ c #DBDBCD",
"/ c gray90",
"( c #EAEAEA",
") c gray94",
"_ c #F8F8F8",
"` c white",
/* pixels */
"////////%&%%%&&%.%=-%yy/////////",
"////////%*a%+saww,ppp%;/////////",
"////////X&a%%isww8ppp%%/////////",
"////////``Xww%%8WWWWp-%/////////",
"````````//%WW%-WWWWWp%%`````````",
"````````//%WW%uWWWWWp%%`````````",
"````````//-~~%%~WWpp%```````````",
"````````o 1~~%%~WWpp     ```````",
"))))))  MM>!!jj!GG  MYYYY ))))))",
"//////  MM>!!jj!GG oMYYYY //////",
"////// oMM>PPssPss  MYYYY //////",
"//////  MM>HLKLLss  Mllll //////",
"//////77xx>JHLLHgg$#xcczz@//////",
"````````ww>PPFDPGGsdw!!PP>``````",
"````````>>fPPjhPGGPPw!!PP>``````",
"````````>>PjjssGGSPPw!!PP>``````",
"````````>>PjjssGGGPPw!!PP>``````",
"````````>>!     ooPPP!!PP>``````",
"////////``oYYYYYMM  PPP>>///////",
"////////77TYYYYRBYxx:<<^^///////",
"////////  QYYYYEYYMMO>>/////////",
"////////`` YY0w_YYYY9OO/////////",
"((((((oO__OYYqe_ooYYkoo(((((((((",
"``````oo//OYYtr_ooYYkoO`````````",
"``````99OO9OoOov4399v99oO```````",
"``````AZ99Ovv99v99kkvkkOO```````",
"``````oOvv9VZ99Uvv99k99OO```````",
"//////Oovv9nV99Zvv99k99oo///////",
"//////vv99Nvvvvv99vvkoO/////////",
"//////oOoOIbCooZ65ooO///////////",
"//////oOOoAmVooZ62OoO///////////",
"////////``oOO``oOo``////////////"
};
