/* XPM */
static char *_9bb59092ad64292a456562a0b4f0df6GDrmwpLC3Oub1ZRy[] = {
/* columns rows colors chars-per-pixel */
"32 32 93 2 ",
"   c #371E06",
".  c #35160B",
"X  c #361B08",
"o  c #2D1A13",
"O  c #271D1A",
"+  c #221F1F",
"@  c #241E1D",
"#  c #291C18",
"$  c #311810",
"%  c #341C11",
"&  c #352014",
"*  c #382217",
"=  c #3B2619",
"-  c #211F20",
";  c #202021",
":  c #272723",
">  c #242426",
",  c #28292B",
"<  c #323225",
"1  c #3B392C",
"2  c #3E3B2D",
"3  c #313337",
"4  c #383831",
"5  c #462608",
"6  c #4F2B09",
"7  c #522D09",
"8  c #5E3E1C",
"9  c #67390C",
"0  c #6E3D0D",
"q  c #403C2F",
"w  c #4C3828",
"e  c #503E26",
"r  c #433F31",
"t  c #443F31",
"y  c #5B442C",
"u  c #554831",
"i  c #5A4D35",
"p  c #3A3D42",
"a  c #3C3F45",
"s  c #5C5A48",
"d  c #4E545C",
"f  c #605E4B",
"g  c #666551",
"h  c #696854",
"j  c #6D6C56",
"k  c #74745C",
"l  c #797960",
"z  c #914F18",
"x  c #93511B",
"c  c #94521E",
"v  c #AF650E",
"b  c #B36911",
"n  c #B76C14",
"m  c #BC7018",
"M  c #9A5A2B",
"N  c #BF5628",
"B  c #9A6535",
"V  c #D75A31",
"C  c #C97C22",
"Z  c #CC7F24",
"A  c #E8774D",
"S  c #CF8126",
"D  c #D08227",
"F  c #D18328",
"G  c #D4832D",
"H  c #DB8338",
"J  c #828165",
"K  c #858567",
"L  c #898869",
"P  c #8D8C6B",
"I  c #8E8D6C",
"U  c #908F6D",
"Y  c #959471",
"T  c #999874",
"R  c #9E9D77",
"E  c #9F9E78",
"W  c #A09F79",
"Q  c #A7A67E",
"!  c #EB8451",
"~  c #F08459",
"^  c #E2906E",
"/  c #F89973",
"(  c #FAA07B",
")  c #5E7597",
"_  c #FCA480",
"`  c #C6C4AA",
"'  c #80A0D7",
"]  c #DCDCCE",
"[  c #E6E6E6",
"{  c gray92",
"}  c gray94",
"|  c #F8F8F8",
" . c white",
/* pixels */
"[ [ [ [ [ [ [ [ [ [ [ [  . .X      . .    X  . .[ [ [ [ [ [ [ [ ",
"[ [ [ [ [ [ [ [ [ [ [       5 9 F     Z m G         [ [ [ [ [ [ ",
"[ [ [ [ [ [ [ [ [ [ [   X X 7 9 F   X S b H         [ [ [ [ [ [ ",
"[ [ [ [ [ [ [ [ [     z v v 0 0 v v v v v C 0 0 v v [ [ [ [ [ [ ",
"[ [ [ [ [ [ [     0 0 z 0 0 v v F 0 0 Z n 0 v v     [ [ [ [ [ [ ",
" . . . . . . .    0 0 z 0 0 v v ! 0 0 D Z 0 v v   X  . . . . . .",
" . . . . . . .    z z v z z 0 0 v 0 0 v v   0 0 F G  . . . . . .",
" . . . . . . .    0 0 v 0 0 6 6 v     X   0     0 0  . . . . . .",
" . . . . . . . . .    z ~ ~     | u i ~ ~   [ [ X X  . . . . . .",
"{ { { { { { { { {   X z ~ ~     | y e ~ ~   | |     { { { { { { ",
"[ [ [ [ [ [ [ [ [     0 ~ ~ ~ ~ | t 8 ~ ~ .  . .[ [ [ [ [ [ [ [ ",
"[ [ [ [ [ [ [ [ [ < <   V V ~ ~ ( ~ ~ ~ ~ _ . . [ [ [ [ [ [ [ [ ",
"[ [ [ [ [ [ [ ] ] 4 4 = N N ~ A / ~ ~ ~ ~ ^ w w [ [ [ [ [ [ [ [ ",
"[ [ [ [ [ [ [ < < Q Q Q . X V V ~ ~ ~ ~ ~ X  . .[ [ [ [ [ [ [ [ ",
" . . . . . .< Q Q ` ` Q Q Q X X . . . . . ` < <  . . . . . . . .",
" . . . . . .< Q Q ` ` r Q Q P P P g g l l Q < <  . . . . . . . .",
" . . . . . .< Q Q ` ` r Q Q J P P g g l l Q < <  . . . . . . . .",
" . . . . . .< Q Q ` ` r Q Q P P Q k l Q Q h < <  . . . . . . . .",
" . . . . . .< Q Q ` ` r g g P P Q K L Q Q < r r  . . . . . . . .",
"[ [ [ [ [ [ % M M B B N & * j j I R R I Y < N N w w [ [ [ [ [ [ ",
"[ [ [ [ [ [ . c c c x V . . g g W E T W U < V V . . [ [ [ [ [ [ ",
"[ [ [ [ [ [ . ~ ~ ~ ~ V . . g g Q g g Q Q < V V   . [ [ [ [ [ [ ",
"[ [ [ [ [ [ . ~ ~ ~ ~ V X . P P ` l l ` ` < V V . . [ [ [ [ [ [ ",
"} } } } } } . ~ ~ ~ ~ V . X P P ` l l ` ` < V V . . } } } } } } ",
" . . . . . . .. . . . . d d ) ) ' ; ; ' ' 3 X X  . . . . . . . .",
" . . . . . . . . . . .; d d ) ) ' ; ; ' ' > [ [  . . . . . . . .",
" . . . . . . . . .; ; d ) ) ) ) ) a ; ) ) ; [ [  . . . . . . . .",
" . . . . . . . . .; ; d ) ) ) ) ) > ; ) ) ; [ [  . . . . . . . .",
"[ [ [ [ [ [ [ [ [ ; : d ) ) ) ) 2 ; ; r r #  . .[ [ [ [ [ [ [ [ ",
"[ [ [ [ [ [ [ [ [ ; ; d d d q r r g s - ; f O # [ [ [ [ [ [ [ [ ",
"[ [ [ [ [ [ [ [ [ , ; d d d 1 r r f g o + f @ ; [ [ [ [ [ [ [ [ ",
"[ [ [ [ [ [ [ [ [ p p ; > ; ; $ ; O O ; ; ; O ; [ [ [ [ [ [ [ [ "
};
