/* XPM */
static char *_575ef38f82f494d9204e32651147fdcjf0e4r0p46JgqsTd[] = {
/* columns rows colors chars-per-pixel */
"32 32 219 2 ",
"   c #0D0908",
".  c #0E1D0B",
"X  c #17160E",
"o  c #1D1511",
"O  c #1C1B13",
"+  c #2D1A0E",
"@  c #231813",
"#  c #2A1A14",
"$  c #331C12",
"%  c #09290C",
"&  c #18280D",
"*  c #0B360D",
"=  c #16350F",
"-  c #192713",
";  c #083011",
":  c #0D3D13",
">  c #143215",
",  c #183617",
"<  c #252518",
"1  c #362317",
"2  c #28361A",
"3  c #3E3A19",
"4  c #382C23",
"5  c #233421",
"6  c #2E3629",
"7  c #3A3329",
"8  c #383829",
"9  c #44371C",
"0  c #45372A",
"q  c #4F3629",
"w  c #0C430E",
"e  c #0B4A16",
"r  c #1B421C",
"t  c #164B18",
"y  c #0C5117",
"u  c #0C541A",
"i  c #0E5D1B",
"p  c #155B1B",
"a  c #244D19",
"s  c #36441A",
"d  c #265C18",
"f  c #3B5A16",
"g  c #0F601C",
"h  c #1A671A",
"j  c #256C19",
"k  c #26721B",
"l  c #2B721B",
"z  c #2B7C1E",
"x  c #337E1F",
"c  c #115B20",
"v  c #324727",
"b  c #275927",
"n  c #375A28",
"m  c #0E6721",
"M  c #116A22",
"N  c #0F7627",
"B  c #107727",
"V  c #117927",
"C  c #1D7B27",
"Z  c #117C29",
"A  c #216E26",
"S  c #277423",
"D  c #367521",
"F  c #386A36",
"G  c #367438",
"H  c #514B1C",
"J  c #4E6616",
"K  c #6B6616",
"L  c #47412D",
"P  c #585823",
"I  c #444332",
"U  c #484736",
"Y  c #4C4435",
"T  c #584935",
"R  c #53493B",
"E  c #5B4E3E",
"W  c #455731",
"Q  c #5A533F",
"!  c #635A27",
"~  c #614E3B",
"^  c #67563A",
"/  c #735231",
"(  c #5A7323",
")  c #516432",
"_  c #497A3C",
"`  c #68672F",
"'  c #3C797C",
"]  c #584D44",
"[  c #5A5646",
"{  c #5F5153",
"}  c #625544",
"|  c #645846",
" . c #6A5945",
".. c #6A5D4B",
"X. c #725C43",
"o. c #596944",
"O. c #557841",
"+. c #6C614D",
"@. c #66694A",
"#. c #75634D",
"$. c #7B694A",
"%. c #6D6250",
"&. c #746552",
"*. c #796750",
"=. c #756954",
"-. c #7C6B54",
";. c #7D6E59",
":. c #6B7A52",
">. c #737154",
",. c #7E715B",
"<. c #766C68",
"1. c #6D7270",
"2. c #815637",
"3. c #917229",
"4. c #8A6A39",
"5. c #84694A",
"6. c #8B7244",
"7. c #957546",
"8. c #816E56",
"9. c #816F58",
"0. c #85735C",
"q. c #88775F",
"w. c #877B5F",
"e. c #967F52",
"r. c #887760",
"t. c #8C7B63",
"y. c #897D64",
"u. c #917F66",
"i. c #907F68",
"p. c #1B8429",
"a. c #288A28",
"s. c #338721",
"d. c #2E9228",
"f. c #3D9C26",
"g. c #389929",
"h. c #3FA229",
"j. c #589B1E",
"k. c #63911B",
"l. c #7D9D17",
"z. c #438822",
"x. c #55852A",
"c. c #449F2A",
"v. c #4F8E3B",
"b. c #599131",
"n. c #74972C",
"m. c #41A329",
"M. c #3B844C",
"N. c #5E8946",
"B. c #688B50",
"V. c #BCA51E",
"C. c #928928",
"Z. c #A98626",
"A. c #A9992F",
"S. c #B19927",
"D. c #AE8E33",
"F. c #BA9839",
"G. c #9EBF25",
"H. c #B1B525",
"J. c #CEB41D",
"K. c #C59D38",
"L. c #C2A926",
"P. c #CEB42A",
"I. c #D5BE28",
"U. c #C9AA34",
"Y. c #CCB435",
"T. c #E0BD39",
"R. c #A2C815",
"E. c #B0C22C",
"W. c #D6C718",
"Q. c #E6D719",
"!. c #DEE116",
"~. c #F1E610",
"^. c #DAC624",
"/. c #D7C338",
"(. c #E1CB24",
"). c #E9D526",
"_. c #878155",
"`. c #AB8945",
"'. c #BE9644",
"]. c #B69156",
"[. c #868764",
"{. c #8E8168",
"}. c #908067",
"|. c #988366",
" X c #93836B",
".X c #97886F",
"XX c #978870",
"oX c #9A8B73",
"OX c #9E9179",
"+X c #B3936D",
"@X c #A89877",
"#X c #81A774",
"$X c #B9A17C",
"%X c #C59A46",
"&X c #CBA553",
"*X c #C19C79",
"=X c #C7A47F",
"-X c #E3CF44",
";X c #F1E15A",
":X c #EBD870",
">X c #6F799C",
",X c #7D8CB3",
"<X c #8C8D88",
"1X c #A39C9D",
"2X c #94A692",
"3X c #B5AA85",
"4X c #92BDB8",
"5X c #C8AA83",
"6X c #D5B583",
"7X c #D0BA98",
"8X c #AAC7AE",
"9X c #CDC294",
"0X c #D7C69D",
"qX c #DEC9A6",
"wX c #F0D6AD",
"eX c #B6BAC4",
"rX c #E9DCC7",
"tX c #FDEBCD",
"yX c #D2D7E1",
/* pixels */
" Xt.0.*.-.-.*.*.0.*.0.0.0.}.oXoXoXoX.X.Xu.q.0.0.u.}.oXoX}..X}.r.",
"t.r.0.*.-.-.#.$.8.X.+.@.>.[.[.[.[.{. X}.t.0.0.0.t.t.}.oX}..X}.q.",
" X9.0.*.-.*.6.7.4./ ) F n _ b.v._ :.w.{.0.,.0.-.0.r.}.oX.X}.}.t.",
"r.#.#.*.5.7.F.L.D.S.l.x p z h.f.g.v.N.N.O._ o.=.0.r.u..X.Xu..Xt.",
" ...#.6.D.F.U.I.P.^.G.z.h z m.m.h.m.m.g.a.C G o.@.,. X X.X XoX.X",
"~ ^ 4.S.W.P.'.U.(.).E.j.l z f.m.m.m.m.h.f.a.C A b o.r.}. X.XoX}.",
" .^ C.W.~.T.%X&XT.).!.R.j.j z f.h.f.h.m.h.g.a.V M b o.w.}..X.XXX",
"#.X.3.V.I.U.%X'.%XQ.Q.H.j.j k s.z k s.f.h.d.p.Z V M b o.0.}..X.X",
"0.9.5.6.`.4.6.].].Y.W.H.n.D k z k j z d.d.p.Z V V V M b Q ;.u.}.",
"t.t.t.t.w.Y  .$X6X&X^.W.A.x.S h z s.a.p.p.Z Z Z V V V c 5 |  X.X",
"t.u.u.u.0.7 E $X0X6X-XQ.A._ C h h C C V B B N N B B V i > [ {..X",
"}.}.}.r.;.7 q 5.t.5X;X).A.` n p g i i i i i e e u i m m u v +.{.",
".X}.u.0.} Y ] { <.7X:X/.F.4.! O.B.B.F t w * , 2 > % e g i : 8 | ",
"t.t.}.&.0 *.1.>XeXrX6X%XK.3.7.3X0X9XB.a * - U [ 8 < > : : * - I ",
"r.r..X&.7 -.<X,XyXtX=XD.J.Z.+XqXwX5X^ - . I #.;.=.%.I - . . 8 +.",
" Xt.u.,.E E <.1XrXtX*XZ.W.Y.2X4X3X$.1 O 8 +.0.r.}.XX,.] Y Y ..y.",
"XXt.0.0.;.R ]  X0XwX5X`.L./.#X' [ T P ! $.0.0.r.}.oXXX Xr.0.t..X",
".X}.0.0.0.-.} } |.$X@Xe.3.V.C.5 < ^ C.C._.r.r.r.XXoXoXoX}.r.t.t.",
"r.q.r.t.q.r.=.[ I W ) n 3 3.K & % 2 H P $.r.t.t..X.Xt..X.X}.t.i.",
"0.0.0.t.}.t.+.I r u g y = 9 s t u % @ R ,.t.r.t.0.-.0..XOX.Xt.}.",
"t.0.0.r.0...! J S N m u e : : u m ; 8 ,.}.}.t.r.r..X.XOX@X Xt.t.",
"0.0.q.r.=.0 K l.z.A t , G M.b > t : 8 =.i..X}.r.9..X.XoXOXoXt.0.",
"q.r.t.r.-.7 f k.( P 2 8 <X8X1.< s b r I ,.t.}.0.r.OXoXoXOX.X}.u.",
"r.r.0.0.-.7 a z.x.( s 6 <.<X] < f S e 5 &. Xt.}.}.XXoXoXoXoXoX X",
"-.9.0.0.0.E v D g.c.d < 9 q 1 = l A r I ,..X}.r.*.t.oX.Xt.oXoXt.",
"*.0.r.0.0.;.U 2 j s.t < ~ 2.9 & d a 8 ..r.}.t.}.t.t.r.}.}..XoX.X",
"#.-.0.q.t.t.R O & = . 7 u.+X~ O & L  .*.r.t.t.r.t.r.-.t..X.X.X}.",
"t.#.0.t..Xt.R @ + $ @ 4 } ..0 @ X Y 9.9.0.r.r.9.r.t.r.r..X}.t.}.",
" X*.#.-.}.}...0 1 $ # @ X o # # 4 E 9.0.0.r.q.r.r.r.}.r.i..Xt.t.",
"0.0.r.0.t.}.t.%.0 # < o   o # 4 E =.0.0.0.r.}.t.0.0.t.t.r.r.t.r.",
"q.t.t.t.t.}..Xi.&.} | Y O X 4 } -.0.0.0.0.q. X}.r.r.r.r.t.t.0.0.",
"0.9.-.r.}.t.r.q.0.-.0.=.R 0 E #.-.0.-.-.9.0.t.t.0.0.r.t.r.r.#.*."
};
