/* XPM */
static char *_d4554c0cfd04bd6e39be1cfd7ef28adnP8Tws4XGJN633Av[] = {
/* columns rows colors chars-per-pixel */
"32 32 215 2 ",
"   c #090A07",
".  c #150D08",
"X  c #18130C",
"o  c #191615",
"O  c #231812",
"+  c #12280E",
"@  c #0D2815",
"#  c #1A3617",
"$  c #26241A",
"%  c #2C261E",
"&  c #382518",
"*  c #273818",
"=  c #363719",
"-  c #2F2921",
";  c #332D24",
":  c #3A2F23",
">  c #283823",
",  c #353227",
"<  c #3B3327",
"1  c #3C332A",
"2  c #2C3335",
"3  c #432918",
"4  c #49351F",
"5  c #5A341A",
"6  c #663B1E",
"7  c #463728",
"8  c #5D3F2D",
"9  c #433E36",
"0  c #603520",
"q  c #1D4218",
"w  c #154E1C",
"e  c #0D591E",
"r  c #15551B",
"t  c #224414",
"y  c #3A481B",
"u  c #2A5015",
"i  c #16621F",
"p  c #296F1C",
"a  c #1E4020",
"s  c #3B4A26",
"d  c #235921",
"f  c #0F6F25",
"g  c #186622",
"h  c #177827",
"j  c #147C29",
"k  c #2C6A2B",
"l  c #4E461A",
"z  c #55401B",
"x  c #62431D",
"c  c #53621E",
"v  c #53442B",
"b  c #4A5623",
"n  c #545825",
"m  c #4C4334",
"M  c #4F4738",
"N  c #564839",
"B  c #554C3D",
"V  c #684B2A",
"C  c #6B5F2C",
"Z  c #785628",
"A  c #634C37",
"S  c #64533F",
"D  c #745930",
"F  c #4A6A22",
"G  c #586523",
"H  c #57762B",
"J  c #293947",
"K  c #0F4355",
"L  c #3A424E",
"P  c #384556",
"I  c #3F6A53",
"U  c #544A41",
"Y  c #5E5343",
"T  c #55594F",
"R  c #635544",
"E  c #685A47",
"W  c #6D5E4A",
"Q  c #725D46",
"!  c #6A5D51",
"~  c #57714B",
"^  c #6C614E",
"/  c #74634D",
"(  c #707C47",
")  c #6D6351",
"_  c #746551",
"`  c #796750",
"'  c #776957",
"]  c #7C6B54",
"[  c #7D6E59",
"{  c #607A51",
"}  c #7F715B",
"|  c #635E70",
" . c #865936",
".. c #956C23",
"X. c #886138",
"o. c #96693A",
"O. c #A57A3D",
"+. c #886647",
"@. c #926A46",
"#. c #9A764D",
"$. c #816D56",
"%. c #816F58",
"&. c #85735B",
"*. c #897559",
"=. c #89765E",
"-. c #977959",
";. c #A47748",
":. c #877760",
">. c #8C7B63",
",. c #917B65",
"<. c #917E65",
"1. c #1A8229",
"2. c #278827",
"3. c #218A29",
"4. c #358927",
"5. c #379727",
"6. c #399B29",
"7. c #6E801C",
"8. c #778A1B",
"9. c #50902D",
"0. c #679132",
"q. c #4FA129",
"w. c #5AAE24",
"e. c #53A529",
"r. c #78854F",
"t. c #7E8170",
"y. c #9B971D",
"u. c #B0911A",
"i. c #9DBE12",
"p. c #938B33",
"a. c #AD8E30",
"s. c #AC843B",
"d. c #B89336",
"f. c #A9A32C",
"g. c #B9A32A",
"h. c #CAB819",
"j. c #C29738",
"k. c #C5AB2A",
"l. c #C8AE29",
"z. c #C5B625",
"x. c #CBB326",
"c. c #D3B929",
"v. c #C6A339",
"b. c #D7B23D",
"n. c #A7CC10",
"m. c #BED12C",
"M. c #D1C00E",
"N. c #C3C018",
"B. c #DAC91C",
"V. c #D7DE10",
"C. c #E1CE1C",
"Z. c #E9DC14",
"A. c #E7D51C",
"S. c #E8E70C",
"D. c #F2EA0C",
"F. c #F7ED12",
"G. c #D9C721",
"H. c #E5CC27",
"J. c #ECD524",
"K. c #E5C632",
"L. c #9E8D40",
"P. c #BC9A49",
"I. c #A88257",
"U. c #BD985A",
"Y. c #B7A545",
"T. c #918066",
"R. c #93836B",
"E. c #98866A",
"W. c #97886F",
"Q. c #8D9E66",
"!. c #81956A",
"~. c #958871",
"^. c #9A8B72",
"/. c #82947C",
"(. c #9B9079",
"). c #AD8661",
"_. c #B28C65",
"`. c #B8956A",
"'. c #C69B45",
"]. c #D3A54E",
"[. c #D3AB51",
"{. c #C09C75",
"}. c #CBA66F",
"|. c #C7A37A",
" X c #E4C55E",
".X c #6F6D85",
"XX c #787583",
"oX c #6677A4",
"OX c #2C8A9F",
"+X c #7E8F85",
"@X c #54BB94",
"#X c #5595A1",
"$X c #7486B4",
"%X c #88848A",
"&X c #94998F",
"*X c #B49982",
"=X c #99AD85",
"-X c #B0A290",
";X c #8A95A9",
":X c #8691B0",
">X c #B5ABA0",
",X c #CBAA82",
"<X c #D7B689",
"1X c #D0B08D",
"2X c #D7BA93",
"3X c #E3BF8C",
"4X c #C1BCBD",
"5X c #E3C59D",
"6X c #DCC6A6",
"7X c #F0D6B0",
"8X c #FCE5BE",
"9X c #B4BACC",
"0X c #BEC3D3",
"qX c #FEE7C2",
"wX c #F9EEDB",
/* pixels */
"R.>.&.` ] ] ] ` &.] &.] R T { { { { ~ ^ } =.&.&.<.R.^.^.T.R.<.>.",
">.>.&.] ] ] / ` %./ ` Y > w h 1.j 1.r # B [ &.&.>.>.R.^.R.W.R.=.",
"R.%.&.] ] ] &.%./ E m * w 2.6.6.6.6.2.g # M [ ] &.>.T.^.W.R.R.>.",
">./ / ] / / ] ] ] B > w f 1.3.3.3.3.1.h e # m / &.>.<.W.R.<.W.>.",
"E W / ] / / / ] E > w h 3.3.3.3.3.3.3.3.3.r > B [ >.W.R.W.R.^.W.",
"S R W ] >.[ ] ) > w 4.q.q.e.w.w.e.e.w.w.q.4.r # B :.R.R.R.W.^.R.",
"W W ` >.R.>.R > w H L.P.d.N.S.V.f.z.S.V.f.0.4.g # B >.R.R.W.W.~.",
"] ` &.>.>.R.R $ y y.l.v.c.D.S.x.s.d.B.Z.g.p.0.g @ N >.^.R.R.W.W.",
"&.&.<.>.=.<.W 7 Z h.C.c.Z.S.B.l.k.k.x.B.x.k.p.F = S <.T.<.<.R.R.",
">.>.T.<.#.`._.o.j.J.J.K.A.x.x.S.F.D.G.v.B.D.M... ._.`.I.T.W.W.W.",
">.<.<.*.+.`.,XP.B.c.c.A.l.s.k.Z.K.v.U.}.'.B.A.[.3X7X|.@.,.^.^.W.",
"R.R.R.&.$.#.).U.a.d.c.D.Z.B.H.K.'.U.|.<X<X Xb.].<X|.-.=.^.^.^.W.",
"W.R.>.>.&.A ! +X*.O.b.J.F.F.K.'.;._.<X5X5X}.d.Y.=Xt.$.E.(.(.^.R.",
">.>.R.R.>.7 K OX!.O.s.P.].].'.O.X.).2X5X,X#.u.m.@X#X(.^.^.^.^.W.",
">.>.W.W.>.9 % C h.u.x 4 X.;.o.o._.,X`. .7 V g.N.c T ~.W.W.^.W.W.",
"R.>.<.<.=.^ 7 z a.a.+.%X.X! @._.2X{.] | %X,.s.a.l B R.W.>.>.>.R.",
"~.>.&.&.>.&.^ N D V ,.4X$X.X*X5X7X1XXXoX9X^.V D v ) R.^.R.>.R.W.",
"W.R.&.&.&.>.R.} <   B -X;X9XwXqXqXwX0X:X>X_ X $ _ ^.^.^.R.:.>.>.",
">.=.>.>.=.>.>.R.} , 7 -.2X7XqX8X8XqX8X6X`.v ; E R.W.>.W.W.R.>.<.",
"&.&.&.>.T.<.>.>.U a s D ;.|.5X5X5X5X1XI.X.b q s W ] &.W.(.W.>.R.",
">.&.&.>.>.^ Y U 2 I { n b ( Q.Q.Q.Q.r.n l { ~ , 7 Y ' ~.(.R.>.>.",
"&.&.>.&.` < . o P ;X&Xk g j j j j j j f d /.&XU O . : ' ^.^.>.&.",
"=.>.>.` < 3 6 8 P J < l k j j j j j j h b 7 2 L N 6 3 : ' W.R.>.",
">.>.&.W ; A ).-.9 @ t F G b 7.i.n.8.n n F u @ 2 $._.Q : ) ^.~.R.",
"] %.&.` M R &.] m # r 4.H n 7.i.n.8.G G 9.i # < W *.W B ` W.^.>.",
"` &.>.&.&.m o % B , # p 5.2.1.1.1.1.2.5.4.q , R < X 1 [ R.W.^.W.",
"/ ] &.=.>.:.[ ) ;     + i 2.6.6.6.6.2.r +   ; _ } _ / >.W.W.W.R.",
">./ &.>.W.>.R.] ; O 3 3 = s y t # # * = X - R ] >.>.>.>.R.R.>.R.",
"R.] / ] R.R.R.} m 3 5 6 0 3 & % % % & 3 : R &.>.>.>.R.>.>.R.>.>.",
"&.&.>.&.>.R.W.^.>.m & 5 5 & 1 / %.%.S < R >.R.>.&.&.>.>.>.>.>.>.",
"=.>.>.>.>.R.W.W.R.&.N O X 7 W %.=.=.%.] %.=.R.R.>.:.>.>.>.>.&.&.",
"&.%.] >.R.>.=.=.&.] W B m R ` ] ] %.%.] %.&.>.>.&.&.>.>.>.>./ ] "
};
