/* XPM */
static char *_19854e4cde34b1ad7b96e4392e72134sG5ylW3VVqUq8H7U[] = {
/* columns rows colors chars-per-pixel */
"32 32 221 2 ",
"   c #050D04",
".  c #140C0A",
"X  c #0A170B",
"o  c #19150D",
"O  c #1B1612",
"+  c #141B10",
"@  c #2A1B0E",
"#  c #261914",
"$  c #361E18",
"%  c #0C250C",
"&  c #07290A",
"*  c #16230E",
"=  c #122C0D",
"-  c #0D360E",
";  c #0C3D0E",
":  c #192714",
">  c #1D2915",
",  c #0B3B12",
"<  c #163413",
"1  c #2D260E",
"2  c #242618",
"3  c #2C241C",
"4  c #3A2716",
"5  c #2B3213",
"6  c #383A18",
"7  c #182E30",
"8  c #2E2B22",
"9  c #342C23",
"0  c #382F25",
"q  c #2E3222",
"w  c #3B3429",
"e  c #3D3B2C",
"r  c #242C36",
"t  c #2B3939",
"y  c #46271B",
"u  c #55341B",
"i  c #413428",
"p  c #42392D",
"a  c #453D32",
"s  c #0D4C15",
"d  c #164916",
"f  c #0D561B",
"g  c #195819",
"h  c #25551F",
"j  c #2C511B",
"k  c #0F621C",
"l  c #1A6519",
"z  c #246D1A",
"x  c #26731B",
"c  c #2D7B1E",
"v  c #37711D",
"b  c #1B5922",
"n  c #3D4D29",
"m  c #225B22",
"M  c #0E6520",
"N  c #0F6B22",
"B  c #176823",
"V  c #127225",
"C  c #117827",
"Z  c #107A29",
"A  c #246726",
"S  c #267A22",
"D  c #356837",
"F  c #397B30",
"G  c #474319",
"H  c #50551D",
"J  c #795F17",
"K  c #434827",
"L  c #554C2B",
"P  c #4A4336",
"I  c #4C4335",
"U  c #534737",
"Y  c #544B3C",
"T  c #5A4D3D",
"R  c #445C33",
"E  c #664F27",
"W  c #655629",
"Q  c #635538",
"!  c #436A34",
"~  c #7E612F",
"^  c #3E3F40",
"/  c #384C4C",
"(  c #5B4D42",
")  c #5D5343",
"_  c #505A4F",
"`  c #615543",
"'  c #6D5643",
"]  c #655A46",
"[  c #6A5A45",
"{  c #655A49",
"}  c #6B5C49",
"|  c #755F45",
" . c #4C7448",
".. c #6A6147",
"X. c #6D624D",
"o. c #7C6440",
"O. c #75644E",
"+. c #6A784D",
"@. c #6E6351",
"#. c #766652",
"$. c #786750",
"%. c #766B53",
"&. c #7C6B54",
"*. c #7D6F5A",
"=. c #717A50",
"-. c #7C7458",
";. c #5F5B6A",
":. c #867D15",
">. c #8C6C2F",
",. c #9A7437",
"<. c #A3743A",
"1. c #866B4A",
"2. c #9A7C48",
"3. c #806E57",
"4. c #816F58",
"5. c #8D7456",
"6. c #84735C",
"7. c #89775E",
"8. c #957953",
"9. c #A47C48",
"0. c #A07E5F",
"q. c #857660",
"w. c #867862",
"e. c #8C7B63",
"r. c #907F66",
"t. c #907F68",
"y. c #8C7D70",
"u. c #2F811F",
"i. c #3A891E",
"p. c #1B832A",
"a. c #288826",
"s. c #338D23",
"d. c #2F922B",
"f. c #389627",
"g. c #399E29",
"h. c #3B843A",
"j. c #3DA02A",
"k. c #699010",
"l. c #66AF1D",
"z. c #498E29",
"x. c #558F31",
"c. c #4A9836",
"v. c #619A2D",
"b. c #41A529",
"n. c #6CAC25",
"m. c #75834E",
"M. c #6C8957",
"N. c #978E17",
"B. c #B69B15",
"V. c #BEA317",
"C. c #958E3A",
"Z. c #AB8637",
"A. c #B69236",
"S. c #B69D3C",
"D. c #8FAC32",
"F. c #BEA82A",
"G. c #C7A42B",
"H. c #C9B128",
"J. c #D5B927",
"K. c #C4A636",
"L. c #CEB834",
"P. c #8DC014",
"I. c #B1CE17",
"U. c #DAC713",
"Y. c #E9D819",
"T. c #F2EA13",
"R. c #CECD24",
"E. c #DEC62A",
"W. c #ECD723",
"Q. c #EAD825",
"!. c #EDD42B",
"~. c #E7C539",
"^. c #888355",
"/. c #9B835B",
"(. c #B68C45",
"). c #B18E49",
"_. c #A18753",
"`. c #B6A754",
"'. c #8D846A",
"]. c #938166",
"[. c #93846B",
"{. c #9A876C",
"}. c #97886F",
"|. c #889767",
" X c #978971",
".X c #9A8B72",
"XX c #9E9077",
"oX c #9E9179",
"OX c #A48162",
"+X c #BC976A",
"@X c #A2947C",
"#X c #A99478",
"$X c #96A370",
"%X c #B5A375",
"&X c #D4A846",
"*X c #CDAD50",
"=X c #C59F62",
"-X c #C7A57D",
";X c #E9CF4A",
":X c #5C7082",
">X c #737892",
",X c #779990",
"<X c #7DA38C",
"1X c #67ACAB",
"2X c #808F91",
"3X c #ADB68F",
"4X c #8BA1A2",
"5X c #BAB3A7",
"6X c #C3A681",
"7X c #CBB189",
"8X c #D9BA87",
"9X c #DEBE95",
"0X c #D0BEA8",
"qX c #E6CC97",
"wX c #D6D3B4",
"eX c #E9CCA7",
"rX c #EDD5A9",
"tX c #93A3C7",
"yX c #ABB2C5",
"uX c #FCE6C4",
"iX c #FCF3E3",
/* pixels */
"[.e.6.$.&.&.&.$.6.&.6.6.6.]..X.X.X.X}.}.r.7.6.6.e.]..X.X].}.].w.",
"e.w.6.&.&.&.O.$.4.O.&.&.e.}.'.M.+.+.m.1.5.8.5.6.e.e.]..X].}.].7.",
"[.3.6.&.&.&.6.4.O.} ..+.=.|.M.h.m c x.>.9.A.).8.5.7.].}.}.].].e.",
"w.O.O.&.O.O.$.%.%.*.+.F c.c.c.f.g x v.S.&XE.E.&X).8.r.[.}.r.}.e.",
"[ } O.&.O.O.] R !  .h.d.g.b.b.g.l x n.R.W.!.!.W.Y.F._.].}.[..X}.",
"Q ] } &.w...R B V a.d.j.b.b.f.u.x x.D.Q.T.!.~.!.Q.E.K._.].[..X].",
"} } $.6.-.R m V Z a.f.s.s.g.s.l u.D.L.~.Y.J.&X&X&XJ.H.).].}.}. X",
"&.$.3.*.R A V Z Z a.s.z l c u.g i.I.Y.Y.H.Z.<.(.<.>.,./.r.].}.}.",
"6.6.&.P b V Z Z Z p.a.a.c x z i.P.R.E.H.=X+X8.E | 1.5.}.].r.].].",
"e.e.X.> f C Z Z Z Z p.a.S l l s.I.!.&X=X8X9X{.9 @.e.}..X.X}.}.}.",
"e.6.Y : f Z Z V N C C V k k B z.I.!.;X8X7X6X5.3 @..XXX@X@X.X.X}.",
"].) 2 - M Z N s s k V B A B ! C.S.J.;XqXq.' E 3 @. XoX@X@X.X.X X",
"}.P + ; N N s & - s D |.3X$X^.,.(.K.*XrX5X>X;.#.U @. XoXoXoX.X].",
"e.P + ; N f < q = & n %XrXrX-X>.G.A.).rXiXtX>X@Xp Y [..X.X.X.X}.",
"w.Y 2 - f , 2 { e + 2 o.7XwX5X2.U.B.9.eXiXyX>Xy.a { [.}.}..X}.}.",
"[.&.T > , % q *.*.K @ 4 1.,X1X`.Y.B.9.eXuX0Xy.I ` w..X}.e.e.e.].",
" Xe.$.Y > q ) e..XC.N.>.L t  .R.V.Z.+X9XqX{.T Y 6..X.X.X].w.].}.",
"}.].6.&.I ` w.}.r.C.:.J 5   G F.J Q =.^.*.` ( &.}.XX.X.X].w.e.e.",
"w.7.w.w.&.6.e. X}.L 1 1 < & 6 >.E 6 j h > w { w.}.}.e.}.}.].e.t.",
"6.6.6.e.].].e..X[.a # y h M g 6 ~ G = f = * e #.6.*.6.}.oX}.e.].",
"e.6.6.w.e.w.e.'.Y t r 3 G A A 6 u @ % l k.k.j e X.[.}.oX@X[.e.e.",
"6.6.w.w.6.6.*.` ) ^ 7 * u H n 4 < / _ m k.l.v : T ].}..XoX.Xe.6.",
"7.w.e.w.w.w.X.9 [ P < d H W G * D <X2Xt g s.z * ) .X.X.XoX}.].r.",
"w.w.6.6.w.e.@.2 2 > d c z.z.v > ,X4X:X/ : s f + { [..X.X.X.X.X[.",
"&.3.6.6.w.].6.) O   - S g.b.s.b _ { ( U O X X X Y w. X}.e..X.Xe.",
"$.6.w.7.7.e.e.w.3 o 2 d S g.g.a.< T OX0.9 . o # p I ) w.].}..X}.",
"O.&.6.7.e.].t.e.8 4 y 2 d S S x % ) #X#X0 # y y 4 O 3 &.}.}.}.].",
"e.O.6.e.}.e.].w.9 4 u 4 + % % = X 2 p e o # y u u @ 9 %.}.].e.].",
"[.&.O.&.].].].w.{ i 4 y $ . O p I I U P O . o @ @ i ] 6.e.[.e.e.",
"6.6.w.6.e.].}..Xe.] i # # . # } &.&.6.&.I w p p w ` 6.e.w.w.e.w.",
"7.e.e.e.e.].}.}.].6.{ 9 3 # 0 O.6.6.6.6.&.&.6.*.&.6.w.w.w.e.6.6.",
"6.4.&.w.].e.7.7.6.&.&.O.] ` [ $.&.4.&.&.3.6.e.e.6.6.w.w.w.w.$.&."
};
