/* XPM */
static char *result[] = {
/* columns rows colors chars-per-pixel */
"32 32 219 2 ",
"   c #1A0B13",
".  c #1B0F1A",
"X  c #1D151B",
"o  c #1E131D",
"O  c #2F070F",
"+  c #35080D",
"@  c #2E110F",
"#  c #250D14",
"$  c #290D18",
"%  c #360C17",
"&  c #3D0C13",
"*  c #340F1B",
"=  c #3F0E18",
"-  c #241316",
";  c #23141D",
":  c #2B141C",
">  c #251A1D",
",  c #2B1B1D",
"<  c #371315",
"1  c #32131C",
"2  c #3A161B",
"3  c #331C1E",
"4  c #3B1A1D",
"5  c #1F1522",
"6  c #241522",
"7  c #291421",
"8  c #251A24",
"9  c #2B1C23",
"0  c #261A2B",
"q  c #2A1C2B",
"w  c #331D24",
"e  c #341F29",
"r  c #3C1C2B",
"t  c #262126",
"y  c #2D2225",
"u  c #2D232B",
"i  c #332325",
"p  c #382726",
"a  c #34242A",
"s  c #3A262C",
"d  c #352A2C",
"f  c #3B2B2D",
"g  c #3C312F",
"h  c #352730",
"j  c #3B2734",
"k  c #352A32",
"l  c #3C2D32",
"z  c #3E2E39",
"x  c #3E3133",
"c  c #3B3336",
"v  c #480705",
"b  c #4C0C0C",
"n  c #5C050D",
"m  c #540A0C",
"M  c #5C0A0D",
"N  c #420F14",
"B  c #490A13",
"V  c #450918",
"C  c #4F0C1E",
"Z  c #520C14",
"A  c #5B0E13",
"S  c #4B1216",
"D  c #47151A",
"F  c #471A1D",
"G  c #4A1A1C",
"H  c #521214",
"J  c #5F1214",
"K  c #541419",
"L  c #5B141B",
"P  c #650A0B",
"I  c #6D0A0C",
"U  c #750A06",
"Y  c #67130D",
"T  c #6A120B",
"R  c #781407",
"E  c #650D13",
"W  c #6F0918",
"Q  c #7C0A11",
"!  c #6E1215",
"~  c #6A151B",
"^  c #621A1B",
"/  c #782219",
"(  c #451E26",
")  c #4B1C25",
"_  c #591822",
"`  c #621F23",
"'  c #691D23",
"]  c #442023",
"[  c #4E2321",
"{  c #43252C",
"}  c #4C2729",
"|  c #422D2E",
" . c #532525",
".. c #5D2C2F",
"X. c #41302F",
"o. c #412C31",
"O. c #482937",
"+. c #422E38",
"@. c #572D36",
"#. c #433234",
"$. c #4A3435",
"%. c #4F3C33",
"&. c #44353A",
"*. c #4B363B",
"=. c #45393C",
"-. c #4C3B3D",
";. c #5A3236",
":. c #54313A",
">. c #523C3E",
",. c #672223",
"<. c #6A2A28",
"1. c #7E2522",
"2. c #702328",
"3. c #712C2C",
"4. c #643937",
"5. c #763536",
"6. c #473742",
"7. c #4A3340",
"8. c #473C40",
"9. c #4C3C41",
"0. c #543D42",
"q. c #583B45",
"w. c #4E4144",
"e. c #4D434A",
"r. c #534245",
"t. c #5A4345",
"y. c #54454A",
"u. c #59454C",
"i. c #564A4C",
"p. c #5B4B4D",
"a. c #574D51",
"s. c #5D4C52",
"d. c #5E5357",
"f. c #5E5358",
"g. c #684345",
"h. c #744246",
"j. c #614C51",
"k. c #654E55",
"l. c #635355",
"z. c #685153",
"x. c #6E5955",
"c. c #64545A",
"v. c #655A5C",
"b. c #6C5E5D",
"n. c #785858",
"m. c #70605D",
"M. c #695C63",
"N. c #725C62",
"B. c #725F70",
"V. c #6D6165",
"C. c #6D616A",
"Z. c #77666C",
"A. c #7A6E70",
"S. c #850E06",
"D. c #8A0D05",
"F. c #810E0A",
"G. c #8B1707",
"H. c #85140D",
"J. c #801B0A",
"K. c #961204",
"L. c #99150A",
"P. c #871214",
"I. c #951512",
"U. c #A91D07",
"Y. c #A71D13",
"T. c #982E07",
"R. c #8C2717",
"E. c #9D2211",
"W. c #9C2C1A",
"Q. c #AE2E05",
"!. c #BB2201",
"~. c #B52409",
"^. c #A93906",
"/. c #AD2818",
"(. c #B62914",
"). c #A73B12",
"_. c #B23214",
"`. c #8C392A",
"'. c #A13231",
"]. c #C42D03",
"[. c #C7390B",
"{. c #D33508",
"}. c #D73B0B",
"|. c #CA2E13",
" X c #C73416",
".X c #D93F12",
"XX c #A54F0E",
"oX c #BA4C13",
"OX c #BC7824",
"+X c #CC4806",
"@X c #DB4403",
"#X c #D95300",
"$X c #DA5C09",
"%X c #CA4218",
"&X c #D5461B",
"*X c #D45919",
"=X c #E9470D",
"-X c #E25906",
";X c #E55911",
":X c #DB6416",
">X c #E56706",
",X c #E86806",
"<X c #EB710C",
"1X c #F37C0C",
"2X c #E56A1C",
"3X c #F67A18",
"4X c #CC4725",
"5X c #D04F25",
"6X c #DE5220",
"7X c #DE6923",
"8X c #EC7620",
"9X c #847172",
"0X c #877679",
"qX c #EF8507",
"wX c #EE8C0F",
"eX c #F39105",
"rX c #E9A800",
"tX c #FDAE1D",
"yX c #8E7E83",
/* pixels */
"u s f x -.$.-.>X~.}.=XR 7X{ p + 9 X X r.H.E.5.o.d p t.q.~ * j l ",
"8 j | R.[.Q.E.R 3.G p z.K.,.I.4X  { j.t.E {.K.9 f f l *.o.>X# 8 ",
"F.Y.! E >XA S r 5.d x u.g.B e s 6 a f $.&.~._ #.4.y &.`.].E I ~.",
"a ; , 9 Y 2 9 &.-.x o.F K.q o.k 5 a > a z.%X( a -.$X|., h.s i 4 ",
"q y f y.B 9 a k.j.&.x P.S.l f e.f k q x | +Xl p g 8Xg i l 5 u a ",
"f a k f : f a y p.#.n.U.V x : k 9.h 9 9X- 8Xf a X.+Xf d M.8 a #.",
"i y x h.0 >.y u t.z.x rX:.d y l p.8.#.# - g.2 -.b. Xd a ,.= s a ",
"$ a f [ 6 -.f k r.u.-.n x x > a i.r.&.a #.%Xg ' -XF i v.).a (.y ",
"@.7 c.].8 o.d 9 &.y.} : | f a > d.e.8.x  .) d M.:X, 6.*.$ &.8.).",
"l.y.U.!.m f a l.-.&.5Xl | g i o y.i.M.0.c.D d #.w.@.f {.9 -.c.l ",
"C.=.r.F.}.d f l.6.^.W x =.#.y a i.e.i.p.z.) a g C.e 7.u.p.0.c.{ ",
"C.-.9.p.Y # 1 1 G.@XwXo.f x 0 9 d.e.8.s.b.N y g R.u ! .Xa 6 r.r.",
"y.t.-.=.y qX-X#XI $ a G F #.l 9 s.9.9.s.V.& y , 9 8 u 6.d 9 9.u.",
"=.y.9.=.-.P ].1 a w #.r.J.] f d d =.9.=./ d d =.p 2.a k.$.i 0.-.",
"f =.-.#.-.G.oX5 i y #.r.y.eXi f d #.0XT.f a p #.N.p L.OX* d i -.",
"#.y.$.t.z.^.! =.; X g f w.p x.N ; 1 L.n k f l p o.j *.a 1 r.l 0.",
"| y.>.p.-.4 &.w > 9 4 9 #.d.U J 1.- s J 9.#.a &.p.d z i.= y.e >.",
"$.-.-.Z.g - l 3.K 1 4 N y f F < { 8 y 3.| 9Xa >.y.h r.9.v s o.>.",
">.f t.9X-.Y k.4.R 6XI E : ! d > p > y 5.e &.d 6.6.B.c *.P l l i ",
"} l q.j.%.: r.m.9 j XX~ ) o a i y p a <.f T 9 p.#.#.E &XQ m 3 l ",
"4Xh > i.eX| >.9.6 A.2XL.G @ -.x y , #.<XS -.,XU k e Q y.3 r.` # ",
"w.w.<X#Xw # p 0XH > s 2 _.@ ~ $ 8 , b.V u.s.7 O.).( 2 #.$.*.*.w.",
"l.-.a i   p -.S.0 p 9 Q.i w ;XB < { $Xq.-.j.{ j -.{ e s.#.f #.p.",
"v.y.w 6 >.$.r.B f a X ^.U 1 j 2 Z ^ *XO :.& q o <.R.1 9 $.&.p.d.",
"c.f.[ M - x.= : y 8 9 u t c u a 5 a c.U.Q.G.0 f k f '.a r.#.l.c.",
"y v.[ E M F D.& 9 y y , 4 v ; X d a b.V   U o k.L 9 >.&.&.t.y M.",
"y.y.~ 3 , , %XH , : % K r n H . u c b # 6 Q 6 yXP.4 ;.C #.9.-.r.",
"y.o.9 y i ,  .J < ,.; i y 8 , 0 8 / &X* W.[.r 3XA J.M l E.9.s.r.",
"u.h a a f #.y.P 3X> #.x #.a 9 ! S 9 /.f p y.a.1Xw s ~ h ,Xr.r.D ",
"V.t a f w | -.J *Xd d -.-.p o.) 9 9 d.a +.q.9.9.w #.Z e -X,Xy *.",
";.& #.a 8 X.,.J.#Xf f t.f #.i A y l =.s.y.*.*.A.r $.2XY.S 9 z qX",
"*.*.y f y c.tX..>X} x a f g #...&.a +.0.l -.f r./ =.!.K j z &.=."
};
