/* XPM */
static char *_7210320b7d34a77a34935d253c58714ezme2891PW2mot49[] = {
/* columns rows colors chars-per-pixel */
"32 32 222 2 ",
"   c #1A0B13",
".  c #1B0F1A",
"X  c #1D151B",
"o  c #1E131D",
"O  c #2F070F",
"+  c #35080D",
"@  c #2E110F",
"#  c #250D14",
"$  c #290D18",
"%  c #360C17",
"&  c #3D0C13",
"*  c #340F1B",
"=  c #3F0E18",
"-  c #241316",
";  c #23141D",
":  c #2B141C",
">  c #251A1D",
",  c #2B1B1D",
"<  c #371315",
"1  c #32131C",
"2  c #3A161B",
"3  c #331C1E",
"4  c #3B1A1D",
"5  c #1F1522",
"6  c #241522",
"7  c #291421",
"8  c #251A24",
"9  c #2B1C23",
"0  c #261A2B",
"q  c #2A1C2B",
"w  c #331D24",
"e  c #3D1D23",
"r  c #341F29",
"t  c #3C1C2B",
"y  c #262126",
"u  c #2D2225",
"i  c #2D232B",
"p  c #332325",
"a  c #382726",
"s  c #34242A",
"d  c #3A262C",
"f  c #352A2C",
"g  c #3B2B2D",
"h  c #3C312F",
"j  c #352730",
"k  c #3B2734",
"l  c #352A32",
"z  c #3C2D32",
"x  c #3E2E39",
"c  c #3E3133",
"v  c #3B3336",
"b  c #480705",
"n  c #4C0C0C",
"m  c #5C050D",
"M  c #540A0C",
"N  c #5C0A0D",
"B  c #420F14",
"V  c #490A13",
"C  c #450918",
"Z  c #4F0C1E",
"A  c #520C14",
"S  c #5B0E13",
"D  c #4B1216",
"F  c #47151A",
"G  c #471A1D",
"H  c #4A1A1C",
"J  c #521214",
"K  c #5F1214",
"L  c #541419",
"P  c #5B141B",
"I  c #650A0B",
"U  c #6D0A0C",
"Y  c #750A06",
"T  c #67130D",
"R  c #6A120B",
"E  c #781407",
"W  c #650D13",
"Q  c #6F0918",
"!  c #7C0A11",
"~  c #6E1215",
"^  c #6A151B",
"/  c #621A1B",
"(  c #761816",
")  c #782219",
"_  c #451E26",
"`  c #4B1C25",
"'  c #591822",
"]  c #621F23",
"[  c #691D23",
"{  c #442023",
"}  c #4E2321",
"|  c #43252C",
" . c #4C2729",
".. c #422D2E",
"X. c #532525",
"o. c #5D2C2F",
"O. c #41302F",
"+. c #412C31",
"@. c #482937",
"#. c #422E38",
"$. c #572D36",
"%. c #433234",
"&. c #4A3435",
"*. c #4F3C33",
"=. c #44353A",
"-. c #4B363B",
";. c #45393C",
":. c #4C3B3D",
">. c #5A3236",
",. c #54313A",
"<. c #523C3E",
"1. c #672223",
"2. c #6A2A28",
"3. c #7E2522",
"4. c #702328",
"5. c #712C2C",
"6. c #643937",
"7. c #763536",
"8. c #473742",
"9. c #4A3340",
"0. c #473C40",
"q. c #4C3C41",
"w. c #543D42",
"e. c #583B45",
"r. c #4E4144",
"t. c #4D434A",
"y. c #534245",
"u. c #5A4345",
"i. c #54454A",
"p. c #59454C",
"a. c #564A4C",
"s. c #5B4B4D",
"d. c #574D51",
"f. c #5D4C52",
"g. c #5E5357",
"h. c #5E5358",
"j. c #684345",
"k. c #744246",
"l. c #614C51",
"z. c #654E55",
"x. c #635355",
"c. c #685153",
"v. c #6E5955",
"b. c #64545A",
"n. c #655A5C",
"m. c #6C5E5D",
"M. c #785858",
"N. c #70605D",
"B. c #695C63",
"V. c #725C62",
"C. c #725F70",
"Z. c #6D6165",
"A. c #6D616A",
"S. c #77666C",
"D. c #7A6E70",
"F. c #850E06",
"G. c #8A0D05",
"H. c #810E0A",
"J. c #8B1707",
"K. c #85140D",
"L. c #801B0A",
"P. c #961204",
"I. c #99150A",
"U. c #871214",
"Y. c #951512",
"T. c #A91D07",
"R. c #A71D13",
"E. c #982E07",
"W. c #8C2717",
"Q. c #9D2211",
"!. c #9C2C1A",
"~. c #AE2E05",
"^. c #BB2201",
"/. c #B52409",
"(. c #A93906",
"). c #AD2818",
"_. c #B62914",
"`. c #A73B12",
"'. c #B23214",
"]. c #8C392A",
"[. c #A13231",
"{. c #C42D03",
"}. c #C7390B",
"|. c #D33508",
" X c #D73B0B",
".X c #CA2E13",
"XX c #C73416",
"oX c #D93F12",
"OX c #E13D01",
"+X c #A54F0E",
"@X c #BA4C13",
"#X c #BC7824",
"$X c #CC4806",
"%X c #DB4403",
"&X c #D95300",
"*X c #DA5C09",
"=X c #CA4218",
"-X c #D5461B",
";X c #D45919",
":X c #E9470D",
">X c #E25906",
",X c #E55911",
"<X c #DB6416",
"1X c #E56706",
"2X c #E86806",
"3X c #EB710C",
"4X c #F37C0C",
"5X c #E56A1C",
"6X c #F67A18",
"7X c #CC4725",
"8X c #D04F25",
"9X c #DE5220",
"0X c #DE6923",
"qX c #EC7620",
"wX c #847172",
"eX c #877679",
"rX c #EF8507",
"tX c #EE8C0F",
"yX c #F39105",
"uX c #E9A800",
"iX c #FDAE1D",
"pX c #8E7E83",
/* pixels */
"i d d z :.&.-.2X/.OX:XE 0Xg f + 9 . X y.K.R.7.+.s s y.e.[ * l z ",
"8 z ..W.XX~.Q.( 5.H d c.P.1.Y.7X  | x.u.K |.P.9 s ..g -.+.>X# 8 ",
"H.).T K 1XS D { 7.l c p.j.V r d 5 p z &.=./.' %.6.u &.].{.W U /.",
"r ; , u T 2 9 =.:.h ..G P.q z f 5 f 6 s x.=X_ s :.<X.X, k.s r 4 ",
"9 i g i.A 9 s z.f.=.g U.G.z d t.d z s c +.$Xz s z qXg a v 8 i s ",
"d s j d > g s p s.=.M.T.C O.: f 0.z 8 wX- 6Xz s %.$Xg f n.y s %.",
"p u z k.8 <.u i u.c.z uX&.f u +.a.0.=.# # j.2 :.m.XXd a ] & | s ",
": s g } 6 :.d f y.s.:.m c c 8 a s.y.&.s %.=Xg [ >XF s n.`.a _.u ",
"$.7 b.}.8 z f 9 =.i.| : g g s > g.i.0.%.X.' f B.<X3 8.:.$ =.0.`.",
"x.i.T.^.n ..s x.:.=.8Xz %.c p ; i.i.B.y.n.F f %.y.$.d |.8 :.n.z ",
"S.=.r.H. Xg d x.8.(.Q c =.c u i a.t.i.s.c.` s z C.t -.j.s.q.b.| ",
"A.:.0.s.R - 1 1 J.%XtX+.g %.q 8 f.t.q.s.n.B 9 z 3.i T oXa 8 y.r.",
"i.i.:.;.u rX>X&XU - p G G =.k 9 f.r.q.f.Z.B u 9 : 8 i =.f 9 q.s.",
";.y.q.;.:.U {.1 s p =.y.L.{ d f s ;.q.;.) f s :.d 4.f b.,.p q.:.",
"f ;.:.=.:.J.@Xo p 9 %.r.a.yXp d f %.eXE.d f f &.V.d I.#X% f p :.",
"%.a.=.u.c.(.~ ;.; ; z g q.g M.B - 1 I.N l g z a ..d :.s 1 i.z <.",
"..i.<.s.-.e %.4 ; 8 G 9 =.h.Y P 3.- s K q.%.d ;.s.g x a.B i.p <.",
"&.8.:.S.c $ z 5.L 1 4 & u d { = k 9 u 2...wXf <.y.z y.q.b d +.<.",
":.g w.wX:.T f.6.K.9XU W 1 ~ f > p > s 7.r =.f ;.8.B.v -.I h k p ",
" .z u.l.*.: w.N.8 z +X^ _ o f p u p u 2.d R 9 a.%.=.W 7XH.M , g ",
"7Xs > a.yX..:.r.6 D.5XI.H 1 -.z u , %.3XD 8.2XE l r ! i.w y.] # ",
":.r.3X&Xr # d eXJ > a 2 '.@ ^ # 8 , V.C p.f.1 #.(._ 4 =.=.=.-.r.",
"x.:.d p   a =.F.8 a 9 ~.p 3 ,XV 2 | *Xe.:.l.@.x :.| s l.%.g =.a.",
"n.i.w 7 <.&.y.D d s . (.Y 1 z 2 A / ;XO >.& q ; 2.W.* 9 =.=.f.d.",
"n.x.} M ; v.= > u 8 8 i i z i p X i b.T.~.F.8 d l d [.s y.=.x.g.",
"i x.} W N F G.B 9 u u 9 3 b 8 . s f m.C   E ; l.P 9 w.=.=.u.i B.",
"p.i./ 1 , , =XL , : % L t N J . i v n # 6 ! 8 pXU.3 >.Z =.r.:.y.",
"i.%.> p p , X.S < 1.- p p > , 0 9 ( -X% !.}.e 6XS L.N z Q.:.f.y.",
"i.d s s z &.i.I 6X> %.c %.s 9 ~ L 9 ).d d i.d.4Xw d ^ f 2Xy.y.F ",
"Z.0 f d 9 g :.S ;Xg d q.<.a z ` 9 9 z.p %.e.q.q.r %.A d *X2Xs ,.",
">.& %.s 8 %.[ E &Xg d y.d =.s K p z ;.f.i.9.=.D.t &.5XR.D 9 x rX",
"-.-.u g u b.iXo.1X .c s d c c 2.=.s %.w.z 8.d y.) ;.^.L k z #.;."
};
